%TF.GenerationSoftware,KiCad,Pcbnew,9.0.1*%
%TF.CreationDate,2025-07-21T18:30:37+01:00*%
%TF.ProjectId,rp2040-literal-bare-minimum,72703230-3430-42d6-9c69-746572616c2d,rev?*%
%TF.SameCoordinates,PX3922770PY49f2aa0*%
%TF.FileFunction,Copper,L2,Bot*%
%TF.FilePolarity,Positive*%
%FSLAX46Y46*%
G04 Gerber Fmt 4.6, Leading zero omitted, Abs format (unit mm)*
G04 Created by KiCad (PCBNEW 9.0.1) date 2025-07-21 18:30:37*
%MOMM*%
%LPD*%
G01*
G04 APERTURE LIST*
G04 Aperture macros list*
%AMRoundRect*
0 Rectangle with rounded corners*
0 $1 Rounding radius*
0 $2 $3 $4 $5 $6 $7 $8 $9 X,Y pos of 4 corners*
0 Add a 4 corners polygon primitive as box body*
4,1,4,$2,$3,$4,$5,$6,$7,$8,$9,$2,$3,0*
0 Add four circle primitives for the rounded corners*
1,1,$1+$1,$2,$3*
1,1,$1+$1,$4,$5*
1,1,$1+$1,$6,$7*
1,1,$1+$1,$8,$9*
0 Add four rect primitives between the rounded corners*
20,1,$1+$1,$2,$3,$4,$5,0*
20,1,$1+$1,$4,$5,$6,$7,0*
20,1,$1+$1,$6,$7,$8,$9,0*
20,1,$1+$1,$8,$9,$2,$3,0*%
G04 Aperture macros list end*
%TA.AperFunction,ComponentPad*%
%ADD10R,1.600000X1.600000*%
%TD*%
%TA.AperFunction,ComponentPad*%
%ADD11C,1.600000*%
%TD*%
%TA.AperFunction,ComponentPad*%
%ADD12C,4.000000*%
%TD*%
%TA.AperFunction,SMDPad,CuDef*%
%ADD13RoundRect,0.135000X-0.185000X0.135000X-0.185000X-0.135000X0.185000X-0.135000X0.185000X0.135000X0*%
%TD*%
%TA.AperFunction,SMDPad,CuDef*%
%ADD14RoundRect,0.140000X-0.170000X0.140000X-0.170000X-0.140000X0.170000X-0.140000X0.170000X0.140000X0*%
%TD*%
%TA.AperFunction,SMDPad,CuDef*%
%ADD15RoundRect,0.150000X-0.150000X0.512500X-0.150000X-0.512500X0.150000X-0.512500X0.150000X0.512500X0*%
%TD*%
%TA.AperFunction,SMDPad,CuDef*%
%ADD16RoundRect,0.250000X-0.375000X-0.625000X0.375000X-0.625000X0.375000X0.625000X-0.375000X0.625000X0*%
%TD*%
%TA.AperFunction,ViaPad*%
%ADD17C,0.900000*%
%TD*%
%TA.AperFunction,Conductor*%
%ADD18C,0.200000*%
%TD*%
G04 APERTURE END LIST*
D10*
%TO.P,J1,1,VBUS*%
%TO.N,Net-(J1-VBUS)*%
X15340000Y8552500D03*
D11*
%TO.P,J1,2,D-*%
%TO.N,/D_USB_N*%
X15340000Y11052500D03*
%TO.P,J1,3,D+*%
%TO.N,/D_USB_P*%
X13340000Y11052500D03*
%TO.P,J1,4,GND*%
%TO.N,GND*%
X13340000Y8552500D03*
D12*
%TO.P,J1,5,Shield*%
X10480000Y3802500D03*
X10480000Y15802500D03*
%TD*%
D13*
%TO.P,R2,1*%
%TO.N,/D_N*%
X35222500Y19227500D03*
%TO.P,R2,2*%
%TO.N,Net-(U1-USB_DM)*%
X35222500Y18207500D03*
%TD*%
%TO.P,R1,1*%
%TO.N,/D_P*%
X32947500Y19257500D03*
%TO.P,R1,2*%
%TO.N,Net-(U1-USB_DP)*%
X32947500Y18237500D03*
%TD*%
D14*
%TO.P,C1,1*%
%TO.N,GND*%
X24182500Y6347500D03*
%TO.P,C1,2*%
%TO.N,+5V*%
X24182500Y5387500D03*
%TD*%
D15*
%TO.P,U2,1,I/O1*%
%TO.N,/D_USB_P*%
X19355000Y11060000D03*
%TO.P,U2,2,GND*%
%TO.N,GND*%
X20305000Y11060000D03*
%TO.P,U2,3,I/O2*%
%TO.N,/D_P*%
X21255000Y11060000D03*
%TO.P,U2,4,I/O2*%
%TO.N,/D_N*%
X21255000Y8785000D03*
%TO.P,U2,5,VBUS*%
%TO.N,+5V*%
X20305000Y8785000D03*
%TO.P,U2,6,I/O1*%
%TO.N,/D_USB_N*%
X19355000Y8785000D03*
%TD*%
D16*
%TO.P,F1,1*%
%TO.N,Net-(J1-VBUS)*%
X19007500Y5677500D03*
%TO.P,F1,2*%
%TO.N,+5V*%
X21807500Y5677500D03*
%TD*%
D17*
%TO.N,+1V1*%
X32840000Y14955000D03*
%TO.N,Net-(U1-USB_DP)*%
X31475935Y17131811D03*
%TO.N,GND*%
X24527500Y16022500D03*
X35027500Y20262500D03*
X31145000Y19865000D03*
X31085000Y18160000D03*
%TO.N,+5V*%
X23102500Y7232500D03*
%TO.N,+3V3*%
X42022500Y7562500D03*
X45272500Y18512500D03*
%TO.N,Net-(U1-USB_DM)*%
X32677812Y16735000D03*
%TO.N,/D_N*%
X29187831Y17932169D03*
X29560000Y19820000D03*
%TO.N,+1V1*%
X33938837Y13361500D03*
X44285000Y14902500D03*
%TD*%
D18*
%TO.N,+1V1*%
X32840000Y14955000D02*
X32840000Y14460337D01*
X32840000Y14460337D02*
X33938837Y13361500D01*
%TO.N,Net-(U1-USB_DM)*%
X33930456Y14940000D02*
X35222500Y14940000D01*
X32677812Y16735000D02*
X32677812Y16192644D01*
X32677812Y16192644D02*
X33930456Y14940000D01*
X35222500Y14940000D02*
X35222500Y18207500D01*
%TO.N,Net-(U1-USB_DP)*%
X32947500Y17485000D02*
X31829124Y17485000D01*
X31829124Y17485000D02*
X31475935Y17131811D01*
X32947500Y17485000D02*
X32947500Y18237500D01*
%TO.N,+1V1*%
X35419115Y13289115D02*
X42889115Y13289115D01*
X34325343Y12825000D02*
X34955000Y12825000D01*
X44285000Y14685000D02*
X44285000Y14902500D01*
X33938837Y13211506D02*
X34325343Y12825000D01*
X33938837Y13361500D02*
X33938837Y13211506D01*
X34955000Y12825000D02*
X35419115Y13289115D01*
X42889115Y13289115D02*
X44285000Y14685000D01*
%TO.N,/D_N*%
X28922500Y16452500D02*
X21255000Y8785000D01*
X29187831Y17932169D02*
X28922500Y17666838D01*
X28922500Y17666838D02*
X28922500Y16452500D01*
X29560000Y19820000D02*
X29946759Y20206759D01*
X30798557Y20653500D02*
X32491840Y20653500D01*
X30351816Y20206759D02*
X30798557Y20653500D01*
X33917840Y19227500D02*
X35222500Y19227500D01*
X29946759Y20206759D02*
X30351816Y20206759D01*
X32491840Y20653500D02*
X33917840Y19227500D01*
%TO.N,GND*%
X20305000Y11060000D02*
X20305000Y11800000D01*
X20305000Y11800000D02*
X24527500Y16022500D01*
%TO.N,+5V*%
X24146500Y5387500D02*
X23051500Y6482500D01*
X23051500Y7181500D02*
X23102500Y7232500D01*
X23051500Y6822500D02*
X23051500Y7181500D01*
X23051500Y6822500D02*
X21913032Y6822500D01*
X23662500Y5372500D02*
X23677500Y5387500D01*
X21807500Y5677500D02*
X23357500Y5677500D01*
X21913032Y6822500D02*
X20305000Y8430532D01*
X23051500Y6482500D02*
X23051500Y6822500D01*
X23357500Y5677500D02*
X23662500Y5372500D01*
X23677500Y5387500D02*
X24182500Y5387500D01*
%TO.N,+3V3*%
X45272500Y10812500D02*
X42022500Y7562500D01*
X45272500Y18512500D02*
X45272500Y10812500D01*
%TO.N,Net-(J1-VBUS)*%
X15340000Y8552500D02*
X18215000Y5677500D01*
X18215000Y5677500D02*
X19007500Y5677500D01*
%TO.N,/D_USB_N*%
X17087500Y11052500D02*
X19355000Y8785000D01*
X15340000Y11052500D02*
X17087500Y11052500D01*
%TO.N,/D_USB_P*%
X18261500Y12153500D02*
X19355000Y11060000D01*
X14441000Y12153500D02*
X18261500Y12153500D01*
X13340000Y11052500D02*
X14441000Y12153500D01*
%TO.N,/D_P*%
X32747500Y19057500D02*
X29252500Y19057500D01*
X21255000Y11060000D02*
X29252500Y19057500D01*
X32947500Y19257500D02*
X32747500Y19057500D01*
%TD*%
%TA.AperFunction,Conductor*%
%TO.N,GND*%
G36*
X32258781Y20033315D02*
G01*
X32279426Y20016679D01*
X32296006Y20000098D01*
X32329489Y19938773D01*
X32324502Y19869082D01*
X32296004Y19824739D01*
X32256370Y19785105D01*
X32256362Y19785095D01*
X32217203Y19718879D01*
X32166134Y19671195D01*
X32110471Y19658000D01*
X30951653Y19658000D01*
X30930407Y19664239D01*
X30908319Y19665818D01*
X30897535Y19673891D01*
X30884614Y19677685D01*
X30870114Y19694419D01*
X30852386Y19707690D01*
X30847678Y19720311D01*
X30838859Y19730489D01*
X30835707Y19752407D01*
X30827969Y19773154D01*
X30830831Y19786315D01*
X30828915Y19799647D01*
X30838114Y19819791D01*
X30842821Y19841427D01*
X30856090Y19859154D01*
X30857940Y19863203D01*
X30863956Y19869666D01*
X31010974Y20016683D01*
X31072296Y20050166D01*
X31098654Y20053000D01*
X32191742Y20053000D01*
X32258781Y20033315D01*
G37*
%TD.AperFunction*%
%TA.AperFunction,Conductor*%
G36*
X50965039Y22647315D02*
G01*
X51010794Y22594511D01*
X51022000Y22543000D01*
X51022000Y122000D01*
X51002315Y54961D01*
X50949511Y9206D01*
X50898000Y-2000D01*
X122000Y-2000D01*
X54961Y17685D01*
X9206Y70489D01*
X-2000Y122000D01*
X-2000Y3942902D01*
X7980000Y3942902D01*
X7980000Y3662099D01*
X8011437Y3383088D01*
X8011439Y3383076D01*
X8073921Y3109322D01*
X8073922Y3109320D01*
X8166662Y2844283D01*
X8288492Y2591300D01*
X8437884Y2353544D01*
X8544187Y2220243D01*
X9507912Y3183968D01*
X9602829Y3053325D01*
X9730825Y2925329D01*
X9861466Y2830414D01*
X8897741Y1866690D01*
X8897741Y1866689D01*
X9031043Y1760385D01*
X9268799Y1610993D01*
X9521782Y1489163D01*
X9786819Y1396423D01*
X9786821Y1396422D01*
X10060575Y1333940D01*
X10060587Y1333938D01*
X10339598Y1302501D01*
X10339600Y1302500D01*
X10620400Y1302500D01*
X10620401Y1302501D01*
X10899412Y1333938D01*
X10899424Y1333940D01*
X11173178Y1396422D01*
X11173180Y1396423D01*
X11438217Y1489163D01*
X11691200Y1610993D01*
X11928956Y1760384D01*
X12062257Y1866690D01*
X11098533Y2830414D01*
X11229175Y2925329D01*
X11357171Y3053325D01*
X11452086Y3183967D01*
X12415810Y2220243D01*
X12522116Y2353544D01*
X12671507Y2591300D01*
X12793337Y2844283D01*
X12886077Y3109320D01*
X12886078Y3109322D01*
X12948560Y3383076D01*
X12948562Y3383088D01*
X12979999Y3662099D01*
X12980000Y3662101D01*
X12980000Y3942900D01*
X12979999Y3942902D01*
X12948562Y4221913D01*
X12948560Y4221925D01*
X12886078Y4495679D01*
X12886077Y4495681D01*
X12793337Y4760718D01*
X12671507Y5013701D01*
X12522115Y5251457D01*
X12415810Y5384759D01*
X11452086Y4421035D01*
X11357171Y4551675D01*
X11229175Y4679671D01*
X11098533Y4774588D01*
X12062257Y5738313D01*
X11928956Y5844616D01*
X11691200Y5994008D01*
X11438217Y6115838D01*
X11173180Y6208578D01*
X11173178Y6208579D01*
X10899424Y6271061D01*
X10899412Y6271063D01*
X10620401Y6302500D01*
X10339598Y6302500D01*
X10060587Y6271063D01*
X10060575Y6271061D01*
X9786821Y6208579D01*
X9786819Y6208578D01*
X9521782Y6115838D01*
X9268799Y5994008D01*
X9031043Y5844616D01*
X8897741Y5738313D01*
X9861466Y4774588D01*
X9730825Y4679671D01*
X9602829Y4551675D01*
X9507912Y4421034D01*
X8544187Y5384759D01*
X8437884Y5251457D01*
X8288492Y5013701D01*
X8166662Y4760718D01*
X8073922Y4495681D01*
X8073921Y4495679D01*
X8011439Y4221925D01*
X8011437Y4221913D01*
X7980000Y3942902D01*
X-2000Y3942902D01*
X-2000Y11154852D01*
X12039500Y11154852D01*
X12039500Y10950149D01*
X12071522Y10747966D01*
X12134781Y10553277D01*
X12227715Y10370887D01*
X12348028Y10205287D01*
X12492786Y10060529D01*
X12658385Y9940216D01*
X12658387Y9940215D01*
X12658390Y9940213D01*
X12712378Y9912705D01*
X12763174Y9864731D01*
X12779969Y9796910D01*
X12757432Y9730775D01*
X12712378Y9691735D01*
X12658644Y9664357D01*
X12614077Y9631977D01*
X12614077Y9631976D01*
X13231002Y9015051D01*
X13156657Y8995130D01*
X13048343Y8932595D01*
X12959905Y8844157D01*
X12897370Y8735843D01*
X12877449Y8661498D01*
X12260524Y9278423D01*
X12260523Y9278423D01*
X12228143Y9233856D01*
X12135244Y9051532D01*
X12072009Y8856918D01*
X12040000Y8654818D01*
X12040000Y8450183D01*
X12072009Y8248083D01*
X12135244Y8053469D01*
X12228141Y7871150D01*
X12228147Y7871141D01*
X12260523Y7826579D01*
X12260524Y7826578D01*
X12877449Y8443504D01*
X12897370Y8369157D01*
X12959905Y8260843D01*
X13048343Y8172405D01*
X13156657Y8109870D01*
X13231001Y8089950D01*
X12614076Y7473026D01*
X12658650Y7440641D01*
X12840968Y7347745D01*
X13035582Y7284510D01*
X13237683Y7252500D01*
X13442317Y7252500D01*
X13644417Y7284510D01*
X13839031Y7347745D01*
X14020206Y7440059D01*
X14088875Y7452955D01*
X14153615Y7426679D01*
X14175767Y7403886D01*
X14182450Y7394958D01*
X14182452Y7394956D01*
X14182454Y7394954D01*
X14182457Y7394952D01*
X14297664Y7308707D01*
X14297671Y7308703D01*
X14432517Y7258409D01*
X14432516Y7258409D01*
X14439444Y7257665D01*
X14492127Y7252000D01*
X15739902Y7252001D01*
X15806941Y7232316D01*
X15827583Y7215682D01*
X17734478Y5308787D01*
X17734480Y5308784D01*
X17845683Y5197581D01*
X17857735Y5175509D01*
X17879166Y5136261D01*
X17882000Y5109903D01*
X17882000Y5002500D01*
X17882001Y5002481D01*
X17892500Y4899704D01*
X17892501Y4899701D01*
X17938556Y4760718D01*
X17947686Y4733166D01*
X18039788Y4583844D01*
X18163844Y4459788D01*
X18313166Y4367686D01*
X18479703Y4312501D01*
X18582491Y4302000D01*
X19432508Y4302001D01*
X19432516Y4302002D01*
X19432519Y4302002D01*
X19488802Y4307752D01*
X19535297Y4312501D01*
X19701834Y4367686D01*
X19851156Y4459788D01*
X19975212Y4583844D01*
X20067314Y4733166D01*
X20122499Y4899703D01*
X20133000Y5002491D01*
X20132999Y6352508D01*
X20132627Y6356145D01*
X20122499Y6455297D01*
X20122498Y6455300D01*
X20106991Y6502097D01*
X20067314Y6621834D01*
X19975212Y6771156D01*
X19851156Y6895212D01*
X19701834Y6987314D01*
X19535297Y7042499D01*
X19535295Y7042500D01*
X19432510Y7053000D01*
X18582498Y7053000D01*
X18582480Y7052999D01*
X18479703Y7042500D01*
X18479700Y7042499D01*
X18313168Y6987315D01*
X18313163Y6987313D01*
X18163845Y6895213D01*
X18092864Y6824232D01*
X18031540Y6790748D01*
X17961849Y6795733D01*
X17917502Y6824233D01*
X16676818Y8064917D01*
X16643333Y8126240D01*
X16640499Y8152598D01*
X16640499Y9400371D01*
X16640498Y9400377D01*
X16634091Y9459984D01*
X16583797Y9594829D01*
X16583793Y9594836D01*
X16497547Y9710045D01*
X16497544Y9710048D01*
X16382335Y9796294D01*
X16382328Y9796298D01*
X16247479Y9846593D01*
X16241959Y9847897D01*
X16181244Y9882471D01*
X16148859Y9944382D01*
X16155086Y10013973D01*
X16184984Y10055879D01*
X16183774Y10057089D01*
X16256627Y10129942D01*
X16331966Y10205281D01*
X16331968Y10205285D01*
X16331971Y10205287D01*
X16452284Y10370886D01*
X16452285Y10370887D01*
X16452287Y10370890D01*
X16459117Y10384296D01*
X16469566Y10395360D01*
X16475889Y10409203D01*
X16493068Y10420244D01*
X16507091Y10435091D01*
X16522772Y10439333D01*
X16534667Y10446977D01*
X16569602Y10452000D01*
X16787403Y10452000D01*
X16854442Y10432315D01*
X16875084Y10415681D01*
X18518181Y8772584D01*
X18551666Y8711261D01*
X18554500Y8684903D01*
X18554500Y8206799D01*
X18557401Y8169933D01*
X18557402Y8169927D01*
X18603254Y8012107D01*
X18603255Y8012104D01*
X18686917Y7870638D01*
X18686923Y7870630D01*
X18803129Y7754424D01*
X18803133Y7754421D01*
X18803135Y7754419D01*
X18944602Y7670756D01*
X18973033Y7662496D01*
X19102426Y7624903D01*
X19102429Y7624903D01*
X19102431Y7624902D01*
X19139306Y7622000D01*
X19139314Y7622000D01*
X19570686Y7622000D01*
X19570694Y7622000D01*
X19607569Y7624902D01*
X19607571Y7624903D01*
X19607573Y7624903D01*
X19649191Y7636995D01*
X19765398Y7670756D01*
X19766874Y7671630D01*
X19768183Y7671962D01*
X19772557Y7673854D01*
X19772862Y7673149D01*
X19834597Y7688815D01*
X19887229Y7673361D01*
X19887443Y7673854D01*
X19891441Y7672124D01*
X19893125Y7671630D01*
X19894602Y7670756D01*
X19923033Y7662496D01*
X20052426Y7624903D01*
X20052429Y7624903D01*
X20052431Y7624902D01*
X20089306Y7622000D01*
X20212935Y7622000D01*
X20279974Y7602315D01*
X20300616Y7585681D01*
X20889783Y6996514D01*
X20923268Y6935191D01*
X20918284Y6865499D01*
X20889784Y6821153D01*
X20839789Y6771158D01*
X20747687Y6621837D01*
X20747685Y6621832D01*
X20744427Y6612000D01*
X20692501Y6455297D01*
X20692501Y6455296D01*
X20692500Y6455296D01*
X20682000Y6352517D01*
X20682000Y5002499D01*
X20682001Y5002482D01*
X20692500Y4899704D01*
X20692501Y4899701D01*
X20738556Y4760718D01*
X20747686Y4733166D01*
X20839788Y4583844D01*
X20963844Y4459788D01*
X21113166Y4367686D01*
X21279703Y4312501D01*
X21382491Y4302000D01*
X22232508Y4302001D01*
X22232516Y4302002D01*
X22232519Y4302002D01*
X22288802Y4307752D01*
X22335297Y4312501D01*
X22501834Y4367686D01*
X22651156Y4459788D01*
X22775212Y4583844D01*
X22867314Y4733166D01*
X22922499Y4899703D01*
X22927893Y4952500D01*
X22929232Y4965603D01*
X22930226Y4968041D01*
X22929852Y4970647D01*
X22943354Y5000213D01*
X22955629Y5030295D01*
X22957783Y5031808D01*
X22958877Y5034203D01*
X22986218Y5051775D01*
X23012810Y5070446D01*
X23016121Y5070992D01*
X23017655Y5071977D01*
X23052590Y5077000D01*
X23057403Y5077000D01*
X23124442Y5057315D01*
X23145084Y5040681D01*
X23181981Y5003784D01*
X23293784Y4891981D01*
X23430715Y4812923D01*
X23549647Y4781056D01*
X23605234Y4748962D01*
X23616813Y4737383D01*
X23756105Y4655006D01*
X23797087Y4643100D01*
X23911502Y4609858D01*
X23911505Y4609858D01*
X23911507Y4609857D01*
X23947810Y4607000D01*
X23947818Y4607000D01*
X24417182Y4607000D01*
X24417190Y4607000D01*
X24453493Y4609857D01*
X24453495Y4609858D01*
X24453497Y4609858D01*
X24494475Y4621764D01*
X24608895Y4655006D01*
X24748187Y4737383D01*
X24862617Y4851813D01*
X24944994Y4991105D01*
X24990143Y5146507D01*
X24993000Y5182810D01*
X24993000Y5592190D01*
X24990143Y5628493D01*
X24944994Y5783895D01*
X24932589Y5804870D01*
X24915406Y5872591D01*
X24932591Y5931116D01*
X24944532Y5951306D01*
X24987004Y6097500D01*
X24680852Y6097500D01*
X24617733Y6114768D01*
X24608895Y6119994D01*
X24608893Y6119995D01*
X24608889Y6119997D01*
X24453497Y6165143D01*
X24453491Y6165144D01*
X24417197Y6168000D01*
X24417190Y6168000D01*
X24306500Y6168000D01*
X24239461Y6187685D01*
X24193706Y6240489D01*
X24182500Y6292000D01*
X24182500Y6347500D01*
X24087097Y6347500D01*
X24057656Y6356145D01*
X24027670Y6362668D01*
X24022654Y6366423D01*
X24020058Y6367185D01*
X23999416Y6383819D01*
X23968819Y6414416D01*
X23935334Y6475739D01*
X23932500Y6502097D01*
X23932500Y6597500D01*
X24432500Y6597500D01*
X24987004Y6597500D01*
X24944531Y6743696D01*
X24862221Y6882875D01*
X24862214Y6882884D01*
X24747883Y6997215D01*
X24747874Y6997222D01*
X24608695Y7079532D01*
X24608690Y7079534D01*
X24453418Y7124645D01*
X24453412Y7124646D01*
X24432500Y7126291D01*
X24432500Y6597500D01*
X23932500Y6597500D01*
X23932500Y6728156D01*
X23944449Y6775830D01*
X23942491Y6776641D01*
X23979297Y6865499D01*
X24016473Y6955249D01*
X24053000Y7138884D01*
X24053000Y7326116D01*
X24016473Y7509751D01*
X23944822Y7682731D01*
X23944821Y7682732D01*
X23944818Y7682738D01*
X23840802Y7838408D01*
X23840799Y7838412D01*
X23708411Y7970800D01*
X23708407Y7970803D01*
X23552737Y8074819D01*
X23552728Y8074824D01*
X23379751Y8146473D01*
X23379743Y8146475D01*
X23196120Y8183000D01*
X23196116Y8183000D01*
X23008884Y8183000D01*
X23008879Y8183000D01*
X22825256Y8146475D01*
X22825248Y8146473D01*
X22652271Y8074824D01*
X22652262Y8074819D01*
X22496592Y7970803D01*
X22496588Y7970800D01*
X22364200Y7838412D01*
X22364197Y7838408D01*
X22260181Y7682738D01*
X22260178Y7682732D01*
X22226298Y7600939D01*
X22205708Y7575390D01*
X22186048Y7549126D01*
X22183896Y7548324D01*
X22182456Y7546536D01*
X22151326Y7536176D01*
X22120584Y7524709D01*
X22118340Y7525198D01*
X22116162Y7524472D01*
X22084367Y7532588D01*
X22052311Y7539561D01*
X22049860Y7541396D01*
X22048463Y7541752D01*
X22024058Y7560709D01*
X21906285Y7678482D01*
X21872802Y7739802D01*
X21877786Y7809494D01*
X21906287Y7853842D01*
X21923081Y7870635D01*
X22006744Y8012102D01*
X22052598Y8169931D01*
X22055500Y8206806D01*
X22055500Y8684904D01*
X22075185Y8751943D01*
X22091814Y8772580D01*
X29281006Y15961773D01*
X29281011Y15961776D01*
X29291214Y15971980D01*
X29291216Y15971980D01*
X29403020Y16083784D01*
X29482077Y16220716D01*
X29523000Y16373443D01*
X29523000Y16959333D01*
X29542685Y17026372D01*
X29595489Y17072127D01*
X29599524Y17073885D01*
X29638062Y17089847D01*
X29793739Y17193867D01*
X29926133Y17326261D01*
X30030153Y17481938D01*
X30101804Y17654918D01*
X30138331Y17838553D01*
X30138331Y18025785D01*
X30101804Y18209420D01*
X30070270Y18285548D01*
X30062802Y18355017D01*
X30094077Y18417496D01*
X30154166Y18453148D01*
X30184832Y18457000D01*
X32003000Y18457000D01*
X32011685Y18454450D01*
X32020646Y18455738D01*
X32044687Y18444760D01*
X32070039Y18437315D01*
X32075965Y18430476D01*
X32084202Y18426714D01*
X32098492Y18404479D01*
X32115794Y18384511D01*
X32118081Y18373999D01*
X32121977Y18367936D01*
X32127000Y18333001D01*
X32127000Y18271061D01*
X32127001Y18209501D01*
X32107317Y18142461D01*
X32054513Y18096706D01*
X32003001Y18085500D01*
X31915794Y18085500D01*
X31915778Y18085501D01*
X31908182Y18085501D01*
X31750067Y18085501D01*
X31750065Y18085501D01*
X31694248Y18070545D01*
X31637965Y18068703D01*
X31569554Y18082311D01*
X31569551Y18082311D01*
X31382319Y18082311D01*
X31382314Y18082311D01*
X31198691Y18045786D01*
X31198683Y18045784D01*
X31025706Y17974135D01*
X31025697Y17974130D01*
X30870027Y17870114D01*
X30870023Y17870111D01*
X30737635Y17737723D01*
X30737632Y17737719D01*
X30633616Y17582049D01*
X30633611Y17582040D01*
X30561962Y17409063D01*
X30561960Y17409055D01*
X30525435Y17225432D01*
X30525435Y17038191D01*
X30561960Y16854568D01*
X30561962Y16854560D01*
X30633611Y16681583D01*
X30633616Y16681574D01*
X30737632Y16525904D01*
X30737635Y16525900D01*
X30870023Y16393512D01*
X30870027Y16393509D01*
X31025697Y16289493D01*
X31025703Y16289490D01*
X31025704Y16289489D01*
X31198684Y16217838D01*
X31306964Y16196300D01*
X31382314Y16181312D01*
X31382318Y16181311D01*
X31382319Y16181311D01*
X31569552Y16181311D01*
X31569553Y16181312D01*
X31753186Y16217838D01*
X31758656Y16220105D01*
X31828125Y16227574D01*
X31890605Y16196300D01*
X31909212Y16174437D01*
X31921495Y16156054D01*
X31939511Y16129090D01*
X32071898Y15996703D01*
X32071903Y15996699D01*
X32089605Y15984871D01*
X32098224Y15975669D01*
X32106282Y15971515D01*
X32128094Y15943780D01*
X32128100Y15943773D01*
X32133454Y15934500D01*
X32176012Y15860786D01*
X32197291Y15823929D01*
X32202238Y15817483D01*
X32199962Y15815738D01*
X32226808Y15766574D01*
X32221824Y15696882D01*
X32193324Y15652535D01*
X32101697Y15560908D01*
X31997681Y15405238D01*
X31997676Y15405229D01*
X31926027Y15232252D01*
X31926025Y15232244D01*
X31889500Y15048621D01*
X31889500Y14861380D01*
X31926025Y14677757D01*
X31926027Y14677749D01*
X31997676Y14504772D01*
X31997681Y14504763D01*
X32101697Y14349093D01*
X32101700Y14349089D01*
X32234086Y14216703D01*
X32234093Y14216697D01*
X32296623Y14174916D01*
X32321167Y14153337D01*
X32329093Y14144253D01*
X32359480Y14091621D01*
X32471284Y13979817D01*
X32471286Y13979816D01*
X32481336Y13969766D01*
X32952018Y13499084D01*
X32985503Y13437761D01*
X32988337Y13411403D01*
X32988337Y13267880D01*
X33024862Y13084257D01*
X33024864Y13084249D01*
X33096513Y12911272D01*
X33096518Y12911263D01*
X33200534Y12755593D01*
X33200537Y12755589D01*
X33332925Y12623201D01*
X33332929Y12623198D01*
X33488599Y12519182D01*
X33488605Y12519179D01*
X33488606Y12519178D01*
X33661586Y12447527D01*
X33845221Y12411000D01*
X33845226Y12411000D01*
X33850856Y12410445D01*
X33909886Y12388575D01*
X33918737Y12382370D01*
X33956627Y12344480D01*
X34043438Y12294361D01*
X34093558Y12265423D01*
X34246286Y12224499D01*
X34246289Y12224499D01*
X34411996Y12224499D01*
X34412012Y12224500D01*
X34868331Y12224500D01*
X34868347Y12224499D01*
X34875943Y12224499D01*
X35034054Y12224499D01*
X35034057Y12224499D01*
X35186785Y12265423D01*
X35236904Y12294361D01*
X35323716Y12344480D01*
X35435520Y12456284D01*
X35435521Y12456286D01*
X35631533Y12652299D01*
X35692856Y12685781D01*
X35719213Y12688615D01*
X42802446Y12688615D01*
X42802462Y12688614D01*
X42810058Y12688614D01*
X42968169Y12688614D01*
X42968172Y12688614D01*
X43120900Y12729538D01*
X43175393Y12761000D01*
X43257831Y12808595D01*
X43369635Y12920399D01*
X43369635Y12920401D01*
X43379839Y12930604D01*
X43379843Y12930609D01*
X44380254Y13931021D01*
X44396849Y13940082D01*
X44410459Y13953214D01*
X44439953Y13963619D01*
X44441575Y13964504D01*
X44443724Y13964952D01*
X44523810Y13980881D01*
X44593401Y13974654D01*
X44648578Y13931790D01*
X44671822Y13865901D01*
X44672000Y13859264D01*
X44672000Y11112598D01*
X44652315Y11045559D01*
X44635681Y11024917D01*
X42160083Y8549319D01*
X42098760Y8515834D01*
X42072402Y8513000D01*
X41928879Y8513000D01*
X41745256Y8476475D01*
X41745248Y8476473D01*
X41572271Y8404824D01*
X41572262Y8404819D01*
X41416592Y8300803D01*
X41416588Y8300800D01*
X41284200Y8168412D01*
X41284197Y8168408D01*
X41180181Y8012738D01*
X41180176Y8012729D01*
X41108527Y7839752D01*
X41108525Y7839744D01*
X41072000Y7656121D01*
X41072000Y7468880D01*
X41108525Y7285257D01*
X41108527Y7285249D01*
X41180176Y7112272D01*
X41180181Y7112263D01*
X41284197Y6956593D01*
X41284200Y6956589D01*
X41416588Y6824201D01*
X41416592Y6824198D01*
X41572262Y6720182D01*
X41572268Y6720179D01*
X41572269Y6720178D01*
X41745249Y6648527D01*
X41855525Y6626592D01*
X41928879Y6612001D01*
X41928883Y6612000D01*
X41928884Y6612000D01*
X42116117Y6612000D01*
X42116118Y6612001D01*
X42299751Y6648527D01*
X42472731Y6720178D01*
X42628408Y6824198D01*
X42760802Y6956592D01*
X42864822Y7112269D01*
X42936473Y7285249D01*
X42973000Y7468884D01*
X42973000Y7612404D01*
X42992685Y7679443D01*
X43009319Y7700085D01*
X44304364Y8995130D01*
X45631006Y10321772D01*
X45631011Y10321776D01*
X45641214Y10331980D01*
X45641216Y10331980D01*
X45753020Y10443784D01*
X45816238Y10553281D01*
X45832077Y10580715D01*
X45873000Y10733443D01*
X45873000Y10891557D01*
X45873000Y17717428D01*
X45892685Y17784467D01*
X45909314Y17805105D01*
X46010802Y17906592D01*
X46114822Y18062269D01*
X46186473Y18235249D01*
X46223000Y18418884D01*
X46223000Y18606116D01*
X46186473Y18789751D01*
X46114822Y18962731D01*
X46114821Y18962732D01*
X46114818Y18962738D01*
X46010802Y19118408D01*
X46010799Y19118412D01*
X45878411Y19250800D01*
X45878407Y19250803D01*
X45722737Y19354819D01*
X45722728Y19354824D01*
X45549751Y19426473D01*
X45549743Y19426475D01*
X45366120Y19463000D01*
X45366116Y19463000D01*
X45178884Y19463000D01*
X45178879Y19463000D01*
X44995256Y19426475D01*
X44995248Y19426473D01*
X44822271Y19354824D01*
X44822262Y19354819D01*
X44666592Y19250803D01*
X44666588Y19250800D01*
X44534200Y19118412D01*
X44534197Y19118408D01*
X44430181Y18962738D01*
X44430176Y18962729D01*
X44358527Y18789752D01*
X44358525Y18789744D01*
X44322000Y18606121D01*
X44322000Y18418880D01*
X44358525Y18235257D01*
X44358527Y18235249D01*
X44430176Y18062272D01*
X44430181Y18062263D01*
X44534196Y17906594D01*
X44534197Y17906593D01*
X44534198Y17906592D01*
X44635682Y17805108D01*
X44669166Y17743787D01*
X44672000Y17717428D01*
X44672000Y15945738D01*
X44652315Y15878699D01*
X44599511Y15832944D01*
X44530353Y15823000D01*
X44523810Y15824120D01*
X44411977Y15846364D01*
X44378616Y15853000D01*
X44191384Y15853000D01*
X44191379Y15853000D01*
X44007756Y15816475D01*
X44007748Y15816473D01*
X43834771Y15744824D01*
X43834762Y15744819D01*
X43679092Y15640803D01*
X43679088Y15640800D01*
X43546700Y15508412D01*
X43546697Y15508408D01*
X43442681Y15352738D01*
X43442676Y15352729D01*
X43371027Y15179752D01*
X43371025Y15179744D01*
X43334500Y14996121D01*
X43334500Y14808880D01*
X43358923Y14686096D01*
X43352696Y14616504D01*
X43324987Y14574224D01*
X42676699Y13925934D01*
X42615376Y13892449D01*
X42589018Y13889615D01*
X35505785Y13889615D01*
X35505769Y13889616D01*
X35498173Y13889616D01*
X35340058Y13889616D01*
X35263694Y13869154D01*
X35187329Y13848692D01*
X35187324Y13848689D01*
X35050405Y13769640D01*
X35050397Y13769634D01*
X35003570Y13722807D01*
X34942247Y13689323D01*
X34872555Y13694308D01*
X34816622Y13736180D01*
X34801329Y13763037D01*
X34781162Y13811725D01*
X34781155Y13811738D01*
X34677139Y13967408D01*
X34677136Y13967412D01*
X34544747Y14099801D01*
X34525895Y14112397D01*
X34481089Y14166009D01*
X34472382Y14235334D01*
X34502536Y14298362D01*
X34561979Y14335082D01*
X34594785Y14339500D01*
X35301555Y14339500D01*
X35301557Y14339500D01*
X35454284Y14380423D01*
X35591216Y14459480D01*
X35703020Y14571284D01*
X35782077Y14708216D01*
X35823000Y14860943D01*
X35823000Y17537905D01*
X35842685Y17604944D01*
X35859314Y17625582D01*
X35913635Y17679902D01*
X35995369Y17818107D01*
X36040165Y17972296D01*
X36043000Y18008319D01*
X36042999Y18406680D01*
X36040165Y18442704D01*
X35995369Y18596893D01*
X35961369Y18654383D01*
X35944188Y18722102D01*
X35961369Y18780618D01*
X35995369Y18838107D01*
X36040165Y18992296D01*
X36043000Y19028319D01*
X36042999Y19426680D01*
X36040165Y19462704D01*
X35995369Y19616893D01*
X35913635Y19755098D01*
X35913633Y19755100D01*
X35913630Y19755104D01*
X35800103Y19868631D01*
X35800095Y19868637D01*
X35661893Y19950369D01*
X35661888Y19950371D01*
X35507708Y19995165D01*
X35507702Y19995166D01*
X35471681Y19998000D01*
X34973330Y19998000D01*
X34973308Y19997999D01*
X34937294Y19995165D01*
X34783111Y19950371D01*
X34783106Y19950369D01*
X34644904Y19868637D01*
X34644896Y19868631D01*
X34640585Y19864319D01*
X34579262Y19830834D01*
X34552904Y19828000D01*
X34217938Y19828000D01*
X34150899Y19847685D01*
X34130257Y19864319D01*
X32979430Y21015145D01*
X32979428Y21015148D01*
X32860557Y21134019D01*
X32860556Y21134020D01*
X32773744Y21184140D01*
X32773744Y21184141D01*
X32773740Y21184142D01*
X32723625Y21213077D01*
X32570897Y21254001D01*
X32412783Y21254001D01*
X32405187Y21254001D01*
X32405171Y21254000D01*
X30877614Y21254000D01*
X30719500Y21254000D01*
X30566772Y21213077D01*
X30566771Y21213077D01*
X30566769Y21213076D01*
X30566766Y21213075D01*
X30516653Y21184141D01*
X30516652Y21184140D01*
X30473246Y21159080D01*
X30429842Y21134021D01*
X30429839Y21134019D01*
X30318035Y21022214D01*
X30139400Y20843578D01*
X30112472Y20828875D01*
X30086654Y20812282D01*
X30080453Y20811391D01*
X30078077Y20810093D01*
X30051719Y20807259D01*
X30033428Y20807259D01*
X30033412Y20807260D01*
X30025816Y20807260D01*
X29867702Y20807260D01*
X29725677Y20769205D01*
X29669397Y20767362D01*
X29653619Y20770500D01*
X29653616Y20770500D01*
X29466384Y20770500D01*
X29466379Y20770500D01*
X29282756Y20733975D01*
X29282748Y20733973D01*
X29109771Y20662324D01*
X29109762Y20662319D01*
X28954092Y20558303D01*
X28954088Y20558300D01*
X28821700Y20425912D01*
X28821697Y20425908D01*
X28717681Y20270238D01*
X28717676Y20270229D01*
X28646027Y20097252D01*
X28646025Y20097244D01*
X28609500Y19913621D01*
X28609500Y19726380D01*
X28646025Y19542757D01*
X28646028Y19542745D01*
X28685342Y19447832D01*
X28692811Y19378363D01*
X28661535Y19315884D01*
X28658462Y19312699D01*
X21602031Y12256268D01*
X21540708Y12222783D01*
X21504625Y12220331D01*
X21470709Y12223000D01*
X21470694Y12223000D01*
X21039306Y12223000D01*
X21039298Y12223000D01*
X21002432Y12220099D01*
X21002426Y12220098D01*
X20844607Y12174246D01*
X20844594Y12174241D01*
X20842620Y12173073D01*
X20840872Y12172630D01*
X20837441Y12171145D01*
X20837201Y12171699D01*
X20774895Y12155897D01*
X20722601Y12171252D01*
X20722356Y12170684D01*
X20717758Y12172674D01*
X20716398Y12173073D01*
X20715203Y12173780D01*
X20715193Y12173784D01*
X20557494Y12219600D01*
X20557497Y12219600D01*
X20555000Y12219797D01*
X20555000Y11954316D01*
X20537733Y11891196D01*
X20503254Y11832895D01*
X20503254Y11832894D01*
X20457402Y11675074D01*
X20457401Y11675068D01*
X20454500Y11638202D01*
X20454500Y11184000D01*
X20451949Y11175315D01*
X20453238Y11166353D01*
X20442259Y11142313D01*
X20434815Y11116961D01*
X20427974Y11111034D01*
X20424213Y11102797D01*
X20401978Y11088508D01*
X20382011Y11071206D01*
X20371496Y11068919D01*
X20365435Y11065023D01*
X20330500Y11060000D01*
X20279500Y11060000D01*
X20212461Y11079685D01*
X20166706Y11132489D01*
X20155500Y11184000D01*
X20155500Y11638187D01*
X20155499Y11638202D01*
X20152598Y11675068D01*
X20152597Y11675074D01*
X20106745Y11832894D01*
X20106745Y11832895D01*
X20106744Y11832896D01*
X20106744Y11832898D01*
X20072267Y11891196D01*
X20055000Y11954316D01*
X20055000Y12219797D01*
X20052504Y12219600D01*
X19894806Y12173784D01*
X19894791Y12173778D01*
X19893599Y12173072D01*
X19892543Y12172805D01*
X19887641Y12170683D01*
X19887298Y12171475D01*
X19825873Y12155897D01*
X19772710Y12171508D01*
X19772554Y12171147D01*
X19769630Y12172413D01*
X19767377Y12173074D01*
X19765399Y12174244D01*
X19765393Y12174246D01*
X19607573Y12220098D01*
X19607567Y12220099D01*
X19570701Y12223000D01*
X19570694Y12223000D01*
X19139306Y12223000D01*
X19139298Y12223000D01*
X19105377Y12220330D01*
X19037000Y12234695D01*
X19007968Y12256267D01*
X18749090Y12515145D01*
X18749088Y12515148D01*
X18630217Y12634019D01*
X18630216Y12634020D01*
X18535654Y12688615D01*
X18535653Y12688616D01*
X18493290Y12713075D01*
X18493289Y12713076D01*
X18480763Y12716433D01*
X18340557Y12754001D01*
X18182443Y12754001D01*
X18174847Y12754001D01*
X18174831Y12754000D01*
X14520057Y12754000D01*
X14361943Y12754000D01*
X14209215Y12713077D01*
X14209214Y12713077D01*
X14209212Y12713076D01*
X14209209Y12713075D01*
X14166847Y12688616D01*
X14166846Y12688615D01*
X14119565Y12661318D01*
X14072285Y12634021D01*
X14072282Y12634019D01*
X13960478Y12522214D01*
X13784842Y12346579D01*
X13723519Y12313094D01*
X13658848Y12316327D01*
X13644534Y12320978D01*
X13469995Y12348622D01*
X13442352Y12353000D01*
X13237648Y12353000D01*
X13213329Y12349149D01*
X13035465Y12320978D01*
X12840776Y12257719D01*
X12658386Y12164785D01*
X12492786Y12044472D01*
X12348028Y11899714D01*
X12227715Y11734114D01*
X12134781Y11551724D01*
X12071522Y11357035D01*
X12039500Y11154852D01*
X-2000Y11154852D01*
X-2000Y15942902D01*
X7980000Y15942902D01*
X7980000Y15662099D01*
X8011437Y15383088D01*
X8011439Y15383076D01*
X8073921Y15109322D01*
X8073922Y15109320D01*
X8166662Y14844283D01*
X8288492Y14591300D01*
X8437884Y14353544D01*
X8544187Y14220243D01*
X9507912Y15183968D01*
X9602829Y15053325D01*
X9730825Y14925329D01*
X9861466Y14830414D01*
X8897741Y13866690D01*
X8897741Y13866689D01*
X9031043Y13760385D01*
X9268799Y13610993D01*
X9521782Y13489163D01*
X9786819Y13396423D01*
X9786821Y13396422D01*
X10060575Y13333940D01*
X10060587Y13333938D01*
X10339598Y13302501D01*
X10339600Y13302500D01*
X10620400Y13302500D01*
X10620401Y13302501D01*
X10899412Y13333938D01*
X10899424Y13333940D01*
X11173178Y13396422D01*
X11173180Y13396423D01*
X11438217Y13489163D01*
X11691200Y13610993D01*
X11928956Y13760384D01*
X12062257Y13866690D01*
X11098533Y14830414D01*
X11229175Y14925329D01*
X11357171Y15053325D01*
X11452086Y15183967D01*
X12415810Y14220243D01*
X12522116Y14353544D01*
X12671507Y14591300D01*
X12793337Y14844283D01*
X12886077Y15109320D01*
X12886078Y15109322D01*
X12948560Y15383076D01*
X12948562Y15383088D01*
X12979999Y15662099D01*
X12980000Y15662101D01*
X12980000Y15942900D01*
X12979999Y15942902D01*
X12948562Y16221913D01*
X12948560Y16221925D01*
X12886078Y16495679D01*
X12886077Y16495681D01*
X12793337Y16760718D01*
X12671507Y17013701D01*
X12522115Y17251457D01*
X12415810Y17384759D01*
X11452086Y16421035D01*
X11357171Y16551675D01*
X11229175Y16679671D01*
X11098533Y16774588D01*
X12062257Y17738313D01*
X11928956Y17844616D01*
X11691200Y17994008D01*
X11438217Y18115838D01*
X11173180Y18208578D01*
X11173178Y18208579D01*
X10899424Y18271061D01*
X10899412Y18271063D01*
X10620401Y18302500D01*
X10339598Y18302500D01*
X10060587Y18271063D01*
X10060575Y18271061D01*
X9786821Y18208579D01*
X9786819Y18208578D01*
X9521782Y18115838D01*
X9268799Y17994008D01*
X9031043Y17844616D01*
X8897741Y17738313D01*
X9861466Y16774588D01*
X9730825Y16679671D01*
X9602829Y16551675D01*
X9507912Y16421034D01*
X8544187Y17384759D01*
X8437884Y17251457D01*
X8288492Y17013701D01*
X8166662Y16760718D01*
X8073922Y16495681D01*
X8073921Y16495679D01*
X8011439Y16221925D01*
X8011437Y16221913D01*
X7980000Y15942902D01*
X-2000Y15942902D01*
X-2000Y22543000D01*
X17685Y22610039D01*
X70489Y22655794D01*
X122000Y22667000D01*
X50898000Y22667000D01*
X50965039Y22647315D01*
G37*
%TD.AperFunction*%
%TD*%
M02*
