%TF.GenerationSoftware,KiCad,Pcbnew,9.0.1*%
%TF.CreationDate,2025-07-21T18:30:37+01:00*%
%TF.ProjectId,rp2040-literal-bare-minimum,72703230-3430-42d6-9c69-746572616c2d,rev?*%
%TF.SameCoordinates,PX3922770PY49f2aa0*%
%TF.FileFunction,Copper,L1,Top*%
%TF.FilePolarity,Positive*%
%FSLAX46Y46*%
G04 Gerber Fmt 4.6, Leading zero omitted, Abs format (unit mm)*
G04 Created by KiCad (PCBNEW 9.0.1) date 2025-07-21 18:30:37*
%MOMM*%
%LPD*%
G01*
G04 APERTURE LIST*
G04 Aperture macros list*
%AMRoundRect*
0 Rectangle with rounded corners*
0 $1 Rounding radius*
0 $2 $3 $4 $5 $6 $7 $8 $9 X,Y pos of 4 corners*
0 Add a 4 corners polygon primitive as box body*
4,1,4,$2,$3,$4,$5,$6,$7,$8,$9,$2,$3,0*
0 Add four circle primitives for the rounded corners*
1,1,$1+$1,$2,$3*
1,1,$1+$1,$4,$5*
1,1,$1+$1,$6,$7*
1,1,$1+$1,$8,$9*
0 Add four rect primitives between the rounded corners*
20,1,$1+$1,$2,$3,$4,$5,0*
20,1,$1+$1,$4,$5,$6,$7,0*
20,1,$1+$1,$6,$7,$8,$9,0*
20,1,$1+$1,$8,$9,$2,$3,0*%
G04 Aperture macros list end*
%TA.AperFunction,SMDPad,CuDef*%
%ADD10RoundRect,0.140000X0.170000X-0.140000X0.170000X0.140000X-0.170000X0.140000X-0.170000X-0.140000X0*%
%TD*%
%TA.AperFunction,SMDPad,CuDef*%
%ADD11RoundRect,0.140000X-0.140000X-0.170000X0.140000X-0.170000X0.140000X0.170000X-0.140000X0.170000X0*%
%TD*%
%TA.AperFunction,SMDPad,CuDef*%
%ADD12RoundRect,0.055000X0.165000X-0.465000X0.165000X0.465000X-0.165000X0.465000X-0.165000X-0.465000X0*%
%TD*%
%TA.AperFunction,SMDPad,CuDef*%
%ADD13R,4.300000X3.400000*%
%TD*%
%TA.AperFunction,SMDPad,CuDef*%
%ADD14RoundRect,0.150000X0.512500X0.150000X-0.512500X0.150000X-0.512500X-0.150000X0.512500X-0.150000X0*%
%TD*%
%TA.AperFunction,SMDPad,CuDef*%
%ADD15RoundRect,0.140000X-0.170000X0.140000X-0.170000X-0.140000X0.170000X-0.140000X0.170000X0.140000X0*%
%TD*%
%TA.AperFunction,SMDPad,CuDef*%
%ADD16RoundRect,0.135000X-0.185000X0.135000X-0.185000X-0.135000X0.185000X-0.135000X0.185000X0.135000X0*%
%TD*%
%TA.AperFunction,SMDPad,CuDef*%
%ADD17RoundRect,0.050000X0.050000X-0.387500X0.050000X0.387500X-0.050000X0.387500X-0.050000X-0.387500X0*%
%TD*%
%TA.AperFunction,SMDPad,CuDef*%
%ADD18RoundRect,0.050000X0.387500X-0.050000X0.387500X0.050000X-0.387500X0.050000X-0.387500X-0.050000X0*%
%TD*%
%TA.AperFunction,HeatsinkPad*%
%ADD19R,3.200000X3.200000*%
%TD*%
%TA.AperFunction,SMDPad,CuDef*%
%ADD20R,1.200000X1.400000*%
%TD*%
%TA.AperFunction,SMDPad,CuDef*%
%ADD21R,1.450000X1.000000*%
%TD*%
%TA.AperFunction,SMDPad,CuDef*%
%ADD22RoundRect,0.140000X0.140000X0.170000X-0.140000X0.170000X-0.140000X-0.170000X0.140000X-0.170000X0*%
%TD*%
%TA.AperFunction,ComponentPad*%
%ADD23R,1.600000X1.600000*%
%TD*%
%TA.AperFunction,ComponentPad*%
%ADD24C,1.600000*%
%TD*%
%TA.AperFunction,ComponentPad*%
%ADD25C,4.000000*%
%TD*%
%TA.AperFunction,ViaPad*%
%ADD26C,0.900000*%
%TD*%
%TA.AperFunction,Conductor*%
%ADD27C,0.200000*%
%TD*%
G04 APERTURE END LIST*
D10*
%TO.P,C11,1*%
%TO.N,+3V3*%
X35212500Y15882500D03*
%TO.P,C11,2*%
%TO.N,GND*%
X35212500Y16842500D03*
%TD*%
%TO.P,C16,1*%
%TO.N,+3V3*%
X45712500Y15892500D03*
%TO.P,C16,2*%
%TO.N,GND*%
X45712500Y16852500D03*
%TD*%
D11*
%TO.P,C3,1*%
%TO.N,GND*%
X46982500Y9132500D03*
%TO.P,C3,2*%
%TO.N,/XTAL_IN*%
X47942500Y9132500D03*
%TD*%
D10*
%TO.P,C14,1*%
%TO.N,+3V3*%
X36257500Y19607500D03*
%TO.P,C14,2*%
%TO.N,GND*%
X36257500Y20567500D03*
%TD*%
%TO.P,C9,1*%
%TO.N,+3V3*%
X43772500Y18377500D03*
%TO.P,C9,2*%
%TO.N,GND*%
X43772500Y19337500D03*
%TD*%
D12*
%TO.P,U4,1,~{CS}*%
%TO.N,/QSPI_SS*%
X26075000Y10270000D03*
%TO.P,U4,2,DO(IO1)*%
%TO.N,/QSPI_SD1*%
X27345000Y10270000D03*
%TO.P,U4,3,~{WP}(IO2)*%
%TO.N,/QSPI_SD2*%
X28615000Y10270000D03*
%TO.P,U4,4,GND*%
%TO.N,GND*%
X29885000Y10270000D03*
%TO.P,U4,5,DI(IO0)*%
%TO.N,/QSPI_SD0*%
X29885000Y15960000D03*
%TO.P,U4,6,CLK*%
%TO.N,/QSPI_SCLK*%
X28615000Y15960000D03*
%TO.P,U4,7,~{HOLD}/RESET(IO3)*%
%TO.N,/QSPI_SD3*%
X27345000Y15960000D03*
%TO.P,U4,8,VCC*%
%TO.N,+3V3*%
X26075000Y15960000D03*
D13*
%TO.P,U4,9,EXP*%
%TO.N,GND*%
X27980000Y13115000D03*
%TD*%
D10*
%TO.P,C5,1*%
%TO.N,+3V3*%
X27607500Y17862500D03*
%TO.P,C5,2*%
%TO.N,GND*%
X27607500Y18822500D03*
%TD*%
%TO.P,C10,1*%
%TO.N,+3V3*%
X33612500Y19727500D03*
%TO.P,C10,2*%
%TO.N,GND*%
X33612500Y20687500D03*
%TD*%
D14*
%TO.P,U3,1,GND*%
%TO.N,GND*%
X22625000Y15780000D03*
%TO.P,U3,2,VO*%
%TO.N,+3V3*%
X22625000Y17680000D03*
%TO.P,U3,3,VI*%
%TO.N,+5V*%
X20350000Y16730000D03*
%TD*%
D10*
%TO.P,C6,1*%
%TO.N,+1V1*%
X33777500Y15232500D03*
%TO.P,C6,2*%
%TO.N,GND*%
X33777500Y16192500D03*
%TD*%
D15*
%TO.P,C17,1*%
%TO.N,+3V3*%
X40772500Y7457500D03*
%TO.P,C17,2*%
%TO.N,GND*%
X40772500Y6497500D03*
%TD*%
D16*
%TO.P,R3,1*%
%TO.N,Net-(C4-Pad2)*%
X45247500Y13837500D03*
%TO.P,R3,2*%
%TO.N,/XTAL_OUT*%
X45247500Y12817500D03*
%TD*%
D10*
%TO.P,C12,1*%
%TO.N,+3V3*%
X40967500Y18227500D03*
%TO.P,C12,2*%
%TO.N,GND*%
X40967500Y19187500D03*
%TD*%
D15*
%TO.P,C13,1*%
%TO.N,+3V3*%
X37207500Y7432500D03*
%TO.P,C13,2*%
%TO.N,GND*%
X37207500Y6472500D03*
%TD*%
D16*
%TO.P,R4,1*%
%TO.N,/QSPI_SS*%
X27582500Y8257500D03*
%TO.P,R4,2*%
%TO.N,Net-(R4-Pad2)*%
X27582500Y7237500D03*
%TD*%
D10*
%TO.P,C15,1*%
%TO.N,+3V3*%
X37537500Y19372500D03*
%TO.P,C15,2*%
%TO.N,GND*%
X37537500Y20332500D03*
%TD*%
D17*
%TO.P,U1,1,IOVDD*%
%TO.N,+3V3*%
X37212500Y9675000D03*
%TO.P,U1,2,GPIO0*%
%TO.N,unconnected-(U1-GPIO0-Pad2)*%
X37612500Y9675000D03*
%TO.P,U1,3,GPIO1*%
%TO.N,unconnected-(U1-GPIO1-Pad3)*%
X38012500Y9675000D03*
%TO.P,U1,4,GPIO2*%
%TO.N,unconnected-(U1-GPIO2-Pad4)*%
X38412500Y9675000D03*
%TO.P,U1,5,GPIO3*%
%TO.N,unconnected-(U1-GPIO3-Pad5)*%
X38812500Y9675000D03*
%TO.P,U1,6,GPIO4*%
%TO.N,unconnected-(U1-GPIO4-Pad6)*%
X39212500Y9675000D03*
%TO.P,U1,7,GPIO5*%
%TO.N,unconnected-(U1-GPIO5-Pad7)*%
X39612500Y9675000D03*
%TO.P,U1,8,GPIO6*%
%TO.N,unconnected-(U1-GPIO6-Pad8)*%
X40012500Y9675000D03*
%TO.P,U1,9,GPIO7*%
%TO.N,unconnected-(U1-GPIO7-Pad9)*%
X40412500Y9675000D03*
%TO.P,U1,10,IOVDD*%
%TO.N,+3V3*%
X40812500Y9675000D03*
%TO.P,U1,11,GPIO8*%
%TO.N,unconnected-(U1-GPIO8-Pad11)*%
X41212500Y9675000D03*
%TO.P,U1,12,GPIO9*%
%TO.N,unconnected-(U1-GPIO9-Pad12)*%
X41612500Y9675000D03*
%TO.P,U1,13,GPIO10*%
%TO.N,unconnected-(U1-GPIO10-Pad13)*%
X42012500Y9675000D03*
%TO.P,U1,14,GPIO11*%
%TO.N,unconnected-(U1-GPIO11-Pad14)*%
X42412500Y9675000D03*
D18*
%TO.P,U1,15,GPIO12*%
%TO.N,unconnected-(U1-GPIO12-Pad15)*%
X43250000Y10512500D03*
%TO.P,U1,16,GPIO13*%
%TO.N,unconnected-(U1-GPIO13-Pad16)*%
X43250000Y10912500D03*
%TO.P,U1,17,GPIO14*%
%TO.N,unconnected-(U1-GPIO14-Pad17)*%
X43250000Y11312500D03*
%TO.P,U1,18,GPIO15*%
%TO.N,unconnected-(U1-GPIO15-Pad18)*%
X43250000Y11712500D03*
%TO.P,U1,19,TESTEN*%
%TO.N,GND*%
X43250000Y12112500D03*
%TO.P,U1,20,XIN*%
%TO.N,/XTAL_IN*%
X43250000Y12512500D03*
%TO.P,U1,21,XOUT*%
%TO.N,/XTAL_OUT*%
X43250000Y12912500D03*
%TO.P,U1,22,IOVDD*%
%TO.N,+3V3*%
X43250000Y13312500D03*
%TO.P,U1,23,DVDD*%
%TO.N,+1V1*%
X43250000Y13712500D03*
%TO.P,U1,24,SWCLK*%
%TO.N,unconnected-(U1-SWCLK-Pad24)*%
X43250000Y14112500D03*
%TO.P,U1,25,SWD*%
%TO.N,unconnected-(U1-SWD-Pad25)*%
X43250000Y14512500D03*
%TO.P,U1,26,RUN*%
%TO.N,+3V3*%
X43250000Y14912500D03*
%TO.P,U1,27,GPIO16*%
%TO.N,unconnected-(U1-GPIO16-Pad27)*%
X43250000Y15312500D03*
%TO.P,U1,28,GPIO17*%
%TO.N,unconnected-(U1-GPIO17-Pad28)*%
X43250000Y15712500D03*
D17*
%TO.P,U1,29,GPIO18*%
%TO.N,unconnected-(U1-GPIO18-Pad29)*%
X42412500Y16550000D03*
%TO.P,U1,30,GPIO19*%
%TO.N,unconnected-(U1-GPIO19-Pad30)*%
X42012500Y16550000D03*
%TO.P,U1,31,GPIO20*%
%TO.N,unconnected-(U1-GPIO20-Pad31)*%
X41612500Y16550000D03*
%TO.P,U1,32,GPIO21*%
%TO.N,unconnected-(U1-GPIO21-Pad32)*%
X41212500Y16550000D03*
%TO.P,U1,33,IOVDD*%
%TO.N,+3V3*%
X40812500Y16550000D03*
%TO.P,U1,34,GPIO22*%
%TO.N,unconnected-(U1-GPIO22-Pad34)*%
X40412500Y16550000D03*
%TO.P,U1,35,GPIO23*%
%TO.N,unconnected-(U1-GPIO23-Pad35)*%
X40012500Y16550000D03*
%TO.P,U1,36,GPIO24*%
%TO.N,unconnected-(U1-GPIO24-Pad36)*%
X39612500Y16550000D03*
%TO.P,U1,37,GPIO25*%
%TO.N,unconnected-(U1-GPIO25-Pad37)*%
X39212500Y16550000D03*
%TO.P,U1,38,GPIO26_ADC0*%
%TO.N,unconnected-(U1-GPIO26_ADC0-Pad38)*%
X38812500Y16550000D03*
%TO.P,U1,39,GPIO27_ADC1*%
%TO.N,unconnected-(U1-GPIO27_ADC1-Pad39)*%
X38412500Y16550000D03*
%TO.P,U1,40,GPIO28_ADC2*%
%TO.N,unconnected-(U1-GPIO28_ADC2-Pad40)*%
X38012500Y16550000D03*
%TO.P,U1,41,GPIO29_ADC3*%
%TO.N,unconnected-(U1-GPIO29_ADC3-Pad41)*%
X37612500Y16550000D03*
%TO.P,U1,42,IOVDD*%
%TO.N,+3V3*%
X37212500Y16550000D03*
D18*
%TO.P,U1,43,ADC_AVDD*%
X36375000Y15712500D03*
%TO.P,U1,44,VREG_IN*%
X36375000Y15312500D03*
%TO.P,U1,45,VREG_VOUT*%
%TO.N,+1V1*%
X36375000Y14912500D03*
%TO.P,U1,46,USB_DM*%
%TO.N,Net-(U1-USB_DM)*%
X36375000Y14512500D03*
%TO.P,U1,47,USB_DP*%
%TO.N,Net-(U1-USB_DP)*%
X36375000Y14112500D03*
%TO.P,U1,48,USB_VDD*%
%TO.N,+3V3*%
X36375000Y13712500D03*
%TO.P,U1,49,IOVDD*%
X36375000Y13312500D03*
%TO.P,U1,50,DVDD*%
%TO.N,+1V1*%
X36375000Y12912500D03*
%TO.P,U1,51,QSPI_SD3*%
%TO.N,/QSPI_SD3*%
X36375000Y12512500D03*
%TO.P,U1,52,QSPI_SCLK*%
%TO.N,/QSPI_SCLK*%
X36375000Y12112500D03*
%TO.P,U1,53,QSPI_SD0*%
%TO.N,/QSPI_SD0*%
X36375000Y11712500D03*
%TO.P,U1,54,QSPI_SD2*%
%TO.N,/QSPI_SD2*%
X36375000Y11312500D03*
%TO.P,U1,55,QSPI_SD1*%
%TO.N,/QSPI_SD1*%
X36375000Y10912500D03*
%TO.P,U1,56,QSPI_SS*%
%TO.N,/QSPI_SS*%
X36375000Y10512500D03*
D19*
%TO.P,U1,57,GND*%
%TO.N,GND*%
X39812500Y13112500D03*
%TD*%
D10*
%TO.P,C7,1*%
%TO.N,+1V1*%
X44692500Y15827500D03*
%TO.P,C7,2*%
%TO.N,GND*%
X44692500Y16787500D03*
%TD*%
D20*
%TO.P,Y1,1,1*%
%TO.N,Net-(C4-Pad2)*%
X46587500Y13727500D03*
%TO.P,Y1,2,2*%
%TO.N,GND*%
X46587500Y11527500D03*
%TO.P,Y1,3,3*%
%TO.N,/XTAL_IN*%
X48287500Y11527500D03*
%TO.P,Y1,4,4*%
%TO.N,GND*%
X48287500Y13727500D03*
%TD*%
D21*
%TO.P,SW1,1,1*%
%TO.N,GND*%
X32797500Y3017500D03*
X27647500Y3017500D03*
%TO.P,SW1,2,2*%
%TO.N,Net-(R4-Pad2)*%
X32797500Y4717500D03*
X27647500Y4717500D03*
%TD*%
D22*
%TO.P,C4,1*%
%TO.N,GND*%
X47932500Y15837500D03*
%TO.P,C4,2*%
%TO.N,Net-(C4-Pad2)*%
X46972500Y15837500D03*
%TD*%
D23*
%TO.P,J1,1,VBUS*%
%TO.N,Net-(J1-VBUS)*%
X15340000Y8552500D03*
D24*
%TO.P,J1,2,D-*%
%TO.N,/D_USB_N*%
X15340000Y11052500D03*
%TO.P,J1,3,D+*%
%TO.N,/D_USB_P*%
X13340000Y11052500D03*
%TO.P,J1,4,GND*%
%TO.N,GND*%
X13340000Y8552500D03*
D25*
%TO.P,J1,5,Shield*%
X10480000Y3802500D03*
X10480000Y15802500D03*
%TD*%
D15*
%TO.P,C2,1*%
%TO.N,GND*%
X24402500Y18842500D03*
%TO.P,C2,2*%
%TO.N,+3V3*%
X24402500Y17882500D03*
%TD*%
D26*
%TO.N,+1V1*%
X32840000Y14955000D03*
%TO.N,Net-(U1-USB_DP)*%
X31475935Y17131811D03*
%TO.N,GND*%
X24527500Y16022500D03*
X35027500Y20262500D03*
X31145000Y19865000D03*
X31085000Y18160000D03*
%TO.N,+5V*%
X23102500Y7232500D03*
%TO.N,+3V3*%
X42022500Y7562500D03*
X45272500Y18512500D03*
%TO.N,Net-(U1-USB_DM)*%
X32677812Y16735000D03*
%TO.N,/D_N*%
X29187831Y17932169D03*
X29560000Y19820000D03*
%TO.N,+1V1*%
X33938837Y13361500D03*
X44285000Y14902500D03*
%TD*%
D27*
%TO.N,+1V1*%
X32840000Y14955000D02*
X33117500Y15232500D01*
X33117500Y15232500D02*
X33777500Y15232500D01*
%TO.N,Net-(U1-USB_DM)*%
X34807512Y14122000D02*
X34416012Y14513500D01*
X36374000Y14511500D02*
X36373000Y14512500D01*
X32047000Y16104188D02*
X32677812Y16735000D01*
X36040800Y14512500D02*
X35942800Y14414500D01*
X36373000Y14512500D02*
X36040800Y14512500D01*
X35303750Y13775450D02*
X34957200Y14122000D01*
X35942800Y14414500D02*
X35716048Y14414500D01*
X35716048Y14414500D02*
X35335500Y14033952D01*
X35335500Y13807200D02*
X35303750Y13775450D01*
X35335500Y14033952D02*
X35335500Y13807200D01*
X32813681Y13865519D02*
X32047000Y14632200D01*
X34957200Y14122000D02*
X34807512Y14122000D01*
X36375000Y14512500D02*
X36374000Y14511500D01*
X34416012Y14513500D02*
X33461662Y14513500D01*
X33461662Y14513500D02*
X32813681Y13865519D01*
X32047000Y14632200D02*
X32047000Y16104188D01*
%TO.N,Net-(U1-USB_DP)*%
X31475935Y17131811D02*
X31410000Y17065876D01*
X31410000Y17065876D02*
X31410000Y16704184D01*
X31646000Y16468184D02*
X31646000Y14466100D01*
X35882148Y14013500D02*
X36108900Y14013500D01*
X33187837Y13185000D02*
X33187837Y13672575D01*
X31646000Y14466100D02*
X32927100Y13185000D01*
X32927100Y13185000D02*
X33187837Y13185000D01*
X33187837Y13672575D02*
X33627762Y14112500D01*
X31410000Y16704184D02*
X31646000Y16468184D01*
X34791100Y13721000D02*
X35198600Y13313500D01*
X33627762Y14112500D02*
X34249912Y14112500D01*
X34641412Y13721000D02*
X34791100Y13721000D01*
X34249912Y14112500D02*
X34641412Y13721000D01*
X35198600Y13313500D02*
X35408900Y13313500D01*
X35408900Y13313500D02*
X35736500Y13641100D01*
X35736500Y13641100D02*
X35736500Y13867852D01*
X35736500Y13867852D02*
X35882148Y14013500D01*
X36108900Y14013500D02*
X36206900Y14111500D01*
%TO.N,/QSPI_SD3*%
X27345000Y15960000D02*
X28567000Y17182000D01*
X30365084Y17182000D02*
X31245000Y16302084D01*
X28567000Y17182000D02*
X30365084Y17182000D01*
X31245000Y16302084D02*
X31245000Y14300000D01*
X31245000Y14300000D02*
X33031500Y12513500D01*
X33031500Y12513500D02*
X34705000Y12513500D01*
X34705000Y12513500D02*
X34706000Y12512500D01*
X34706000Y12512500D02*
X36375000Y12512500D01*
%TO.N,/QSPI_SCLK*%
X29436000Y16781000D02*
X30198984Y16781000D01*
X30832000Y16147984D02*
X30832000Y14068000D01*
X28615000Y15960000D02*
X29436000Y16781000D01*
X30832000Y14068000D02*
X32787500Y12112500D01*
X32787500Y12112500D02*
X36375000Y12112500D01*
X30198984Y16781000D02*
X30832000Y16147984D01*
%TO.N,+3V3*%
X27607500Y17862500D02*
X27607500Y17492500D01*
X27607500Y17492500D02*
X26075000Y15960000D01*
%TO.N,+1V1*%
X33938837Y13361500D02*
X33980337Y13320000D01*
X34625000Y13320000D02*
X35032500Y12912500D01*
X33980337Y13320000D02*
X34625000Y13320000D01*
X35032500Y12912500D02*
X36375000Y12912500D01*
%TO.N,/QSPI_SD0*%
X29885000Y15960000D02*
X30431000Y15414000D01*
X30431000Y15414000D02*
X30431000Y12729000D01*
X30431000Y12729000D02*
X31447500Y11712500D01*
X31447500Y11712500D02*
X36375000Y11712500D01*
%TO.N,/QSPI_SS*%
X26075000Y10270000D02*
X27185000Y9160000D01*
X27582500Y8257500D02*
X27582500Y8762500D01*
X27582500Y8762500D02*
X27185000Y9160000D01*
X27185000Y9160000D02*
X27775000Y8570000D01*
X27775000Y8570000D02*
X32470000Y8570000D01*
X32470000Y8570000D02*
X34411500Y10511500D01*
X34411500Y10511500D02*
X36375000Y10511500D01*
%TO.N,/QSPI_SD1*%
X27345000Y10270000D02*
X28567000Y9048000D01*
X28567000Y9048000D02*
X32233000Y9048000D01*
X32233000Y9048000D02*
X34097500Y10912500D01*
X34097500Y10912500D02*
X36375000Y10912500D01*
%TO.N,/QSPI_SD2*%
X28615000Y10270000D02*
X29436000Y9449000D01*
X32039000Y9449000D02*
X33902500Y11312500D01*
X29436000Y9449000D02*
X32039000Y9449000D01*
X33902500Y11312500D02*
X36375000Y11312500D01*
%TO.N,GND*%
X29885000Y10270000D02*
X29885000Y11210000D01*
X29885000Y11210000D02*
X27980000Y13115000D01*
%TO.N,+1V1*%
X36375000Y14912500D02*
X35377500Y14912500D01*
X35377500Y14912500D02*
X34985000Y15305000D01*
X34985000Y15305000D02*
X33850000Y15305000D01*
%TO.N,GND*%
X36257500Y20567500D02*
X35332500Y20567500D01*
X35332500Y20567500D02*
X35027500Y20262500D01*
%TO.N,+3V3*%
X33612500Y19727500D02*
X34275000Y20390000D01*
X34275000Y20390000D02*
X34275000Y20572075D01*
X34851425Y21148500D02*
X36614050Y21148500D01*
X34275000Y20572075D02*
X34851425Y21148500D01*
X36868500Y20894050D02*
X36868500Y20218500D01*
X36614050Y21148500D02*
X36868500Y20894050D01*
X36868500Y20218500D02*
X36257500Y19607500D01*
%TO.N,/D_N*%
X29187831Y18027831D02*
X29560000Y18400000D01*
X29187831Y17932169D02*
X29187831Y18027831D01*
X29560000Y18400000D02*
X29560000Y19820000D01*
%TO.N,GND*%
X31085000Y18160000D02*
X31085000Y18616000D01*
X31085000Y18616000D02*
X31392500Y18923500D01*
X31392500Y19617500D02*
X31145000Y19865000D01*
X31392500Y18923500D02*
X31392500Y19617500D01*
X31145000Y19865000D02*
X31352500Y19657500D01*
X31442500Y19657500D02*
X33495500Y17604500D01*
X31352500Y19657500D02*
X31442500Y19657500D01*
X33495500Y17604500D02*
X33495500Y16474500D01*
X33495500Y16474500D02*
X33777500Y16192500D01*
%TO.N,+3V3*%
X28485000Y18740000D02*
X28485000Y20570000D01*
X27607500Y17862500D02*
X28485000Y18740000D01*
X30315000Y20570000D02*
X30397500Y20652500D01*
X28485000Y20570000D02*
X30315000Y20570000D01*
%TO.N,+1V1*%
X44285000Y14902500D02*
X44156500Y14902500D01*
%TO.N,GND*%
X35212500Y20077500D02*
X35027500Y20262500D01*
X24527500Y16022500D02*
X24285000Y15780000D01*
X35212500Y16842500D02*
X35212500Y20077500D01*
X43250000Y12112500D02*
X40812500Y12112500D01*
X46587500Y11627500D02*
X48287500Y13327500D01*
X24285000Y15780000D02*
X22625000Y15780000D01*
%TO.N,+5V*%
X17707500Y16332500D02*
X18102500Y16727500D01*
X23102500Y7232500D02*
X23102500Y12472500D01*
X23102500Y12472500D02*
X21237500Y14337500D01*
X20350000Y16730000D02*
X18580000Y16730000D01*
X18580000Y16730000D02*
X18577500Y16727500D01*
X18102500Y16727500D02*
X18577500Y16727500D01*
X21237500Y14337500D02*
X17707500Y14337500D01*
X17707500Y14337500D02*
X17707500Y16332500D01*
%TO.N,+3V3*%
X40812500Y9675000D02*
X40812500Y7497500D01*
X37537500Y19372500D02*
X39822500Y19372500D01*
X42217500Y13702500D02*
X42217500Y14892500D01*
X42237500Y14912500D02*
X42012500Y14912500D01*
X32637500Y19597500D02*
X32767500Y19727500D01*
X36375000Y15712500D02*
X35927500Y16160000D01*
X42217500Y14892500D02*
X42237500Y14912500D01*
X32767500Y19727500D02*
X33612500Y19727500D01*
X37212500Y9675000D02*
X37212500Y10837500D01*
X42012500Y14912500D02*
X40812500Y16112500D01*
X44557500Y13687500D02*
X44557500Y14087840D01*
X27607500Y17862500D02*
X22807500Y17862500D01*
X37212500Y16550000D02*
X37212500Y17535000D01*
X43250000Y14912500D02*
X42812500Y14912500D01*
X30397500Y20652500D02*
X31582500Y20652500D01*
X39822500Y19372500D02*
X40967500Y18227500D01*
X33612500Y19727500D02*
X34162500Y19177500D01*
X36375000Y15312500D02*
X36375000Y15712500D01*
X37212500Y9675000D02*
X37212500Y7437500D01*
X37302500Y19607500D02*
X37537500Y19372500D01*
X45137500Y18377500D02*
X45272500Y18512500D01*
X40812500Y9675000D02*
X40812500Y10367500D01*
X40812500Y10367500D02*
X40275000Y10905000D01*
X34162500Y19177500D02*
X34162500Y17282500D01*
X42812500Y14912500D02*
X42611500Y15113500D01*
X43772500Y17116148D02*
X43772500Y18377500D01*
X37400000Y10900000D02*
X37220000Y10900000D01*
X43250000Y13312500D02*
X42607500Y13312500D01*
X31582500Y20652500D02*
X32637500Y19597500D01*
X37537500Y18277500D02*
X37537500Y19372500D01*
X35927500Y16160000D02*
X35927500Y18157500D01*
X45087160Y14617500D02*
X45487500Y14617500D01*
X37405000Y10905000D02*
X37400000Y10900000D01*
X37220000Y13307500D02*
X37225000Y13312500D01*
X45712500Y14842500D02*
X45712500Y15892500D01*
X40275000Y10905000D02*
X37405000Y10905000D01*
X43772500Y18377500D02*
X45137500Y18377500D01*
X37212500Y17952500D02*
X37537500Y18277500D01*
X40772500Y7457500D02*
X37232500Y7457500D01*
X45487500Y14617500D02*
X45712500Y14842500D01*
X36257500Y19607500D02*
X37302500Y19607500D01*
X36375000Y15712500D02*
X37212500Y16550000D01*
X35927500Y18157500D02*
X36257500Y18487500D01*
X40967500Y18227500D02*
X43622500Y18227500D01*
X42607500Y13312500D02*
X42217500Y13702500D01*
X40812500Y17620000D02*
X40812500Y17012500D01*
X40632500Y17800000D02*
X40812500Y17620000D01*
X42611500Y15955148D02*
X43772500Y17116148D01*
X42611500Y15113500D02*
X42611500Y15955148D01*
X37212500Y17535000D02*
X37477500Y17800000D01*
X40812500Y16112500D02*
X40812500Y16550000D01*
X37225000Y13312500D02*
X36375000Y13312500D01*
X35212500Y15882500D02*
X33987500Y17107500D01*
X35782500Y15312500D02*
X35212500Y15882500D01*
X36375000Y15312500D02*
X35782500Y15312500D01*
X37220000Y10900000D02*
X37220000Y13307500D01*
X36375000Y13312500D02*
X36375000Y13712500D01*
X40812500Y16550000D02*
X40812500Y17012500D01*
X34162500Y17282500D02*
X33987500Y17107500D01*
X37477500Y17800000D02*
X40632500Y17800000D01*
X42022500Y7562500D02*
X40877500Y7562500D01*
X37212500Y16550000D02*
X37212500Y17952500D01*
X44557500Y14087840D02*
X45087160Y14617500D01*
X44182500Y13312500D02*
X44557500Y13687500D01*
X40812500Y17012500D02*
X40812500Y18072500D01*
X43250000Y13312500D02*
X44182500Y13312500D01*
X43250000Y14912500D02*
X42237500Y14912500D01*
X36257500Y18487500D02*
X36257500Y19607500D01*
%TO.N,/XTAL_IN*%
X48287500Y9477500D02*
X47942500Y9132500D01*
X43892500Y12512500D02*
X43250000Y12512500D01*
X45686500Y10526500D02*
X45686500Y10718500D01*
X47488500Y10526500D02*
X45686500Y10526500D01*
X48287500Y11427500D02*
X47488500Y10628500D01*
X45686500Y10718500D02*
X43892500Y12512500D01*
X47488500Y10628500D02*
X47488500Y10526500D01*
X48287500Y11527500D02*
X48287500Y9477500D01*
%TO.N,Net-(C4-Pad2)*%
X46587500Y13727500D02*
X45357500Y13727500D01*
X46587500Y15452500D02*
X46972500Y15837500D01*
X46587500Y13727500D02*
X46587500Y15452500D01*
%TO.N,/XTAL_OUT*%
X45152500Y12912500D02*
X43250000Y12912500D01*
%TO.N,Net-(R4-Pad2)*%
X32797500Y4717500D02*
X27647500Y4717500D01*
X27582500Y7237500D02*
X27582500Y4782500D01*
%TO.N,+1V1*%
X44156500Y14902500D02*
X44156500Y15291500D01*
X44156500Y13881500D02*
X44156500Y14902500D01*
X43987500Y13712500D02*
X44156500Y13881500D01*
X43250000Y13712500D02*
X43987500Y13712500D01*
X44156500Y15291500D02*
X44692500Y15827500D01*
%TD*%
%TA.AperFunction,Conductor*%
%TO.N,GND*%
G36*
X30835203Y11475116D02*
G01*
X30841681Y11469084D01*
X30962639Y11348126D01*
X30962649Y11348115D01*
X30966979Y11343785D01*
X30966980Y11343784D01*
X31078784Y11231980D01*
X31078786Y11231979D01*
X31078790Y11231976D01*
X31141591Y11195718D01*
X31141595Y11195717D01*
X31141596Y11195716D01*
X31166411Y11181389D01*
X31215712Y11152924D01*
X31215714Y11152924D01*
X31215715Y11152923D01*
X31368443Y11112000D01*
X32553403Y11112000D01*
X32620442Y11092315D01*
X32666197Y11039511D01*
X32676141Y10970353D01*
X32647116Y10906797D01*
X32641084Y10900319D01*
X31826584Y10085819D01*
X31765261Y10052334D01*
X31738903Y10049500D01*
X30656862Y10049500D01*
X30655159Y10050000D01*
X30009000Y10050000D01*
X30000314Y10052551D01*
X29991353Y10051262D01*
X29967312Y10062241D01*
X29941961Y10069685D01*
X29936033Y10076526D01*
X29927797Y10080287D01*
X29913507Y10102522D01*
X29896206Y10122489D01*
X29893918Y10133004D01*
X29890023Y10139065D01*
X29885000Y10174000D01*
X29885000Y10366000D01*
X29904685Y10433039D01*
X29957489Y10478794D01*
X30009000Y10490000D01*
X30605000Y10490000D01*
X30605000Y10778451D01*
X30594289Y10867639D01*
X30535208Y11017459D01*
X30537566Y11018389D01*
X30524792Y11073794D01*
X30548395Y11139557D01*
X30549310Y11140795D01*
X30573351Y11172910D01*
X30623597Y11307624D01*
X30623598Y11307628D01*
X30629999Y11367156D01*
X30630000Y11367173D01*
X30630000Y11381403D01*
X30649685Y11448442D01*
X30702489Y11494197D01*
X30771647Y11504141D01*
X30835203Y11475116D01*
G37*
%TD.AperFunction*%
%TA.AperFunction,Conductor*%
G36*
X35390540Y20528315D02*
G01*
X35436295Y20475511D01*
X35447501Y20424000D01*
X35447501Y20362851D01*
X35450354Y20326590D01*
X35495468Y20171305D01*
X35507411Y20151111D01*
X35524592Y20083387D01*
X35507411Y20024872D01*
X35495006Y20003896D01*
X35495004Y20003891D01*
X35449857Y19848498D01*
X35449856Y19848492D01*
X35447000Y19812198D01*
X35447000Y19402803D01*
X35449856Y19366509D01*
X35449857Y19366503D01*
X35495004Y19211110D01*
X35495005Y19211107D01*
X35577381Y19071816D01*
X35577387Y19071808D01*
X35620680Y19028516D01*
X35635384Y19001588D01*
X35651977Y18975769D01*
X35652868Y18969570D01*
X35654166Y18967193D01*
X35657000Y18940834D01*
X35657000Y18787598D01*
X35637315Y18720559D01*
X35620681Y18699917D01*
X35446981Y18526218D01*
X35446979Y18526216D01*
X35427842Y18493069D01*
X35419753Y18479057D01*
X35367923Y18389285D01*
X35326999Y18236557D01*
X35326999Y18236555D01*
X35326999Y18068454D01*
X35327000Y18068441D01*
X35327000Y16966500D01*
X35324449Y16957815D01*
X35325738Y16948853D01*
X35314759Y16924813D01*
X35307315Y16899461D01*
X35300474Y16893534D01*
X35296713Y16885297D01*
X35274478Y16871008D01*
X35254511Y16853706D01*
X35243996Y16851419D01*
X35237935Y16847523D01*
X35203000Y16842500D01*
X35153098Y16842500D01*
X35086059Y16862185D01*
X35065417Y16878819D01*
X34998819Y16945417D01*
X34965334Y17006740D01*
X34962500Y17033098D01*
X34962500Y17621290D01*
X34962499Y17621291D01*
X34941587Y17619646D01*
X34941584Y17619645D01*
X34921593Y17613837D01*
X34851723Y17614038D01*
X34793054Y17651981D01*
X34764212Y17715620D01*
X34763000Y17732914D01*
X34763000Y19256555D01*
X34763000Y19256557D01*
X34722077Y19409284D01*
X34705787Y19437500D01*
X34643024Y19546210D01*
X34643021Y19546214D01*
X34643020Y19546216D01*
X34549415Y19639821D01*
X34545076Y19647768D01*
X34537830Y19653192D01*
X34528595Y19677952D01*
X34515931Y19701145D01*
X34516576Y19710174D01*
X34513413Y19718656D01*
X34519029Y19744477D01*
X34520915Y19770836D01*
X34526733Y19779890D01*
X34528265Y19786929D01*
X34549411Y19815177D01*
X34633506Y19899273D01*
X34633511Y19899276D01*
X34643714Y19909480D01*
X34643716Y19909480D01*
X34755520Y20021284D01*
X34834577Y20158216D01*
X34871439Y20295788D01*
X34879454Y20309672D01*
X34882380Y20323118D01*
X34903525Y20351366D01*
X35063843Y20511684D01*
X35125164Y20545166D01*
X35151522Y20548000D01*
X35323501Y20548000D01*
X35390540Y20528315D01*
G37*
%TD.AperFunction*%
%TA.AperFunction,Conductor*%
G36*
X31349442Y20032315D02*
G01*
X31370084Y20015681D01*
X32156981Y19228784D01*
X32268784Y19116981D01*
X32405715Y19037923D01*
X32558443Y18996999D01*
X32558446Y18996999D01*
X32716554Y18996999D01*
X32716557Y18996999D01*
X32869285Y19037923D01*
X32883597Y19046187D01*
X32930125Y19073049D01*
X32998025Y19089523D01*
X33055247Y19072395D01*
X33186105Y18995006D01*
X33195777Y18992196D01*
X33341502Y18949858D01*
X33341505Y18949858D01*
X33341507Y18949857D01*
X33377810Y18947000D01*
X33438000Y18947000D01*
X33505039Y18927315D01*
X33550794Y18874511D01*
X33562000Y18823000D01*
X33562000Y17582597D01*
X33554768Y17557969D01*
X33551435Y17532512D01*
X33544185Y17521930D01*
X33542315Y17515558D01*
X33532729Y17502582D01*
X33529368Y17498604D01*
X33506981Y17476216D01*
X33499470Y17463207D01*
X33492337Y17454762D01*
X33472036Y17441351D01*
X33454424Y17424559D01*
X33443403Y17422436D01*
X33434040Y17416250D01*
X33409710Y17415944D01*
X33385816Y17411339D01*
X33375397Y17415511D01*
X33364176Y17415369D01*
X33343542Y17428265D01*
X33320953Y17437309D01*
X33309927Y17447096D01*
X33283723Y17473300D01*
X33283719Y17473303D01*
X33128049Y17577319D01*
X33128040Y17577324D01*
X32955063Y17648973D01*
X32955055Y17648975D01*
X32771432Y17685500D01*
X32771428Y17685500D01*
X32584196Y17685500D01*
X32584191Y17685500D01*
X32400568Y17648976D01*
X32400556Y17648972D01*
X32395082Y17646704D01*
X32325613Y17639238D01*
X32263135Y17670516D01*
X32244534Y17692375D01*
X32214237Y17737719D01*
X32214236Y17737720D01*
X32214232Y17737725D01*
X32081846Y17870111D01*
X32081842Y17870114D01*
X31926172Y17974130D01*
X31926163Y17974135D01*
X31753186Y18045784D01*
X31753178Y18045786D01*
X31569555Y18082311D01*
X31569551Y18082311D01*
X31382319Y18082311D01*
X31382314Y18082311D01*
X31198691Y18045786D01*
X31198683Y18045784D01*
X31025706Y17974135D01*
X31025697Y17974130D01*
X30870027Y17870114D01*
X30755835Y17755922D01*
X30694512Y17722438D01*
X30624820Y17727422D01*
X30606159Y17736214D01*
X30596871Y17741576D01*
X30596870Y17741577D01*
X30596869Y17741577D01*
X30444141Y17782501D01*
X30286027Y17782501D01*
X30278431Y17782501D01*
X30278415Y17782500D01*
X30262331Y17782500D01*
X30195292Y17802185D01*
X30149537Y17854989D01*
X30138331Y17906500D01*
X30138331Y18025787D01*
X30125479Y18090394D01*
X30119720Y18119346D01*
X30121561Y18175624D01*
X30160500Y18320943D01*
X30160500Y19024928D01*
X30180185Y19091967D01*
X30196814Y19112605D01*
X30298302Y19214092D01*
X30402322Y19369769D01*
X30473973Y19542749D01*
X30510500Y19726384D01*
X30510500Y19913616D01*
X30510500Y19917883D01*
X30513882Y19929401D01*
X30512741Y19941353D01*
X30523544Y19962308D01*
X30530185Y19984922D01*
X30540056Y19994335D01*
X30544759Y20003455D01*
X30572502Y20025271D01*
X30590026Y20035388D01*
X30652024Y20052000D01*
X31282403Y20052000D01*
X31349442Y20032315D01*
G37*
%TD.AperFunction*%
%TA.AperFunction,Conductor*%
G36*
X50965039Y22647315D02*
G01*
X51010794Y22594511D01*
X51022000Y22543000D01*
X51022000Y122000D01*
X51002315Y54961D01*
X50949511Y9206D01*
X50898000Y-2000D01*
X122000Y-2000D01*
X54961Y17685D01*
X9206Y70489D01*
X-2000Y122000D01*
X-2000Y3942902D01*
X7980000Y3942902D01*
X7980000Y3662099D01*
X8011437Y3383088D01*
X8011439Y3383076D01*
X8073921Y3109322D01*
X8073922Y3109320D01*
X8166662Y2844283D01*
X8288492Y2591300D01*
X8437884Y2353544D01*
X8544187Y2220243D01*
X9507912Y3183968D01*
X9602829Y3053325D01*
X9730825Y2925329D01*
X9861466Y2830414D01*
X8897741Y1866690D01*
X8897741Y1866689D01*
X9031043Y1760385D01*
X9268799Y1610993D01*
X9521782Y1489163D01*
X9786819Y1396423D01*
X9786821Y1396422D01*
X10060575Y1333940D01*
X10060587Y1333938D01*
X10339598Y1302501D01*
X10339600Y1302500D01*
X10620400Y1302500D01*
X10620401Y1302501D01*
X10899412Y1333938D01*
X10899424Y1333940D01*
X11173178Y1396422D01*
X11173180Y1396423D01*
X11438217Y1489163D01*
X11691200Y1610993D01*
X11928956Y1760384D01*
X12062257Y1866690D01*
X11098533Y2830414D01*
X11229175Y2925329D01*
X11357171Y3053325D01*
X11452086Y3183967D01*
X12415810Y2220243D01*
X12522116Y2353544D01*
X12595074Y2469656D01*
X26422500Y2469656D01*
X26428901Y2410128D01*
X26428903Y2410121D01*
X26479145Y2275414D01*
X26479149Y2275407D01*
X26565309Y2160313D01*
X26565312Y2160310D01*
X26680406Y2074150D01*
X26680413Y2074146D01*
X26815120Y2023904D01*
X26815127Y2023902D01*
X26874655Y2017501D01*
X26874672Y2017500D01*
X27397500Y2017500D01*
X27897500Y2017500D01*
X28420328Y2017500D01*
X28420344Y2017501D01*
X28479872Y2023902D01*
X28479879Y2023904D01*
X28614586Y2074146D01*
X28614593Y2074150D01*
X28729687Y2160310D01*
X28729690Y2160313D01*
X28815850Y2275407D01*
X28815854Y2275414D01*
X28866096Y2410121D01*
X28866098Y2410128D01*
X28872499Y2469656D01*
X31572500Y2469656D01*
X31578901Y2410128D01*
X31578903Y2410121D01*
X31629145Y2275414D01*
X31629149Y2275407D01*
X31715309Y2160313D01*
X31715312Y2160310D01*
X31830406Y2074150D01*
X31830413Y2074146D01*
X31965120Y2023904D01*
X31965127Y2023902D01*
X32024655Y2017501D01*
X32024672Y2017500D01*
X32547500Y2017500D01*
X33047500Y2017500D01*
X33570328Y2017500D01*
X33570344Y2017501D01*
X33629872Y2023902D01*
X33629879Y2023904D01*
X33764586Y2074146D01*
X33764593Y2074150D01*
X33879687Y2160310D01*
X33879690Y2160313D01*
X33965850Y2275407D01*
X33965854Y2275414D01*
X34016096Y2410121D01*
X34016098Y2410128D01*
X34022499Y2469656D01*
X34022500Y2469673D01*
X34022500Y2767500D01*
X33047500Y2767500D01*
X33047500Y2017500D01*
X32547500Y2017500D01*
X32547500Y2767500D01*
X31572500Y2767500D01*
X31572500Y2469656D01*
X28872499Y2469656D01*
X28872500Y2469673D01*
X28872500Y2767500D01*
X27897500Y2767500D01*
X27897500Y2017500D01*
X27397500Y2017500D01*
X27397500Y2767500D01*
X26422500Y2767500D01*
X26422500Y2469656D01*
X12595074Y2469656D01*
X12671507Y2591300D01*
X12793336Y2844281D01*
X12798773Y2859817D01*
X12798773Y2859818D01*
X12886077Y3109320D01*
X12886078Y3109322D01*
X12948560Y3383076D01*
X12948562Y3383088D01*
X12979999Y3662099D01*
X12980000Y3662101D01*
X12980000Y3942900D01*
X12979999Y3942902D01*
X12948562Y4221913D01*
X12948560Y4221925D01*
X12886078Y4495679D01*
X12886077Y4495681D01*
X12793337Y4760718D01*
X12671507Y5013701D01*
X12522115Y5251457D01*
X12415810Y5384759D01*
X11452086Y4421035D01*
X11357171Y4551675D01*
X11229175Y4679671D01*
X11098533Y4774588D01*
X12062257Y5738313D01*
X11928956Y5844616D01*
X11691200Y5994008D01*
X11438217Y6115838D01*
X11173180Y6208578D01*
X11173178Y6208579D01*
X10899424Y6271061D01*
X10899412Y6271063D01*
X10620401Y6302500D01*
X10339598Y6302500D01*
X10060587Y6271063D01*
X10060575Y6271061D01*
X9786821Y6208579D01*
X9786819Y6208578D01*
X9521782Y6115838D01*
X9268799Y5994008D01*
X9031043Y5844616D01*
X8897741Y5738313D01*
X9861466Y4774588D01*
X9730825Y4679671D01*
X9602829Y4551675D01*
X9507912Y4421034D01*
X8544187Y5384759D01*
X8437884Y5251457D01*
X8288492Y5013701D01*
X8166662Y4760718D01*
X8073922Y4495681D01*
X8073921Y4495679D01*
X8011439Y4221925D01*
X8011437Y4221913D01*
X7980000Y3942902D01*
X-2000Y3942902D01*
X-2000Y11154852D01*
X12039500Y11154852D01*
X12039500Y10950149D01*
X12071522Y10747966D01*
X12134781Y10553277D01*
X12188586Y10447680D01*
X12221184Y10383703D01*
X12227715Y10370887D01*
X12348028Y10205287D01*
X12492786Y10060529D01*
X12658385Y9940216D01*
X12658387Y9940215D01*
X12658390Y9940213D01*
X12712378Y9912705D01*
X12763174Y9864731D01*
X12779969Y9796910D01*
X12757432Y9730775D01*
X12712378Y9691735D01*
X12658644Y9664357D01*
X12614077Y9631977D01*
X12614077Y9631976D01*
X13231002Y9015051D01*
X13156657Y8995130D01*
X13048343Y8932595D01*
X12959905Y8844157D01*
X12897370Y8735843D01*
X12877449Y8661498D01*
X12260524Y9278423D01*
X12260523Y9278423D01*
X12228143Y9233856D01*
X12135244Y9051532D01*
X12072009Y8856918D01*
X12040000Y8654818D01*
X12040000Y8450183D01*
X12072009Y8248083D01*
X12135244Y8053469D01*
X12228141Y7871150D01*
X12228147Y7871141D01*
X12260523Y7826579D01*
X12260524Y7826578D01*
X12877449Y8443504D01*
X12897370Y8369157D01*
X12959905Y8260843D01*
X13048343Y8172405D01*
X13156657Y8109870D01*
X13231001Y8089950D01*
X12614076Y7473026D01*
X12658650Y7440641D01*
X12840968Y7347745D01*
X13035582Y7284510D01*
X13237683Y7252500D01*
X13442317Y7252500D01*
X13644417Y7284510D01*
X13839031Y7347745D01*
X14020206Y7440059D01*
X14088875Y7452955D01*
X14153615Y7426679D01*
X14175767Y7403886D01*
X14182450Y7394958D01*
X14182452Y7394956D01*
X14182454Y7394954D01*
X14182457Y7394952D01*
X14297664Y7308707D01*
X14297671Y7308703D01*
X14432517Y7258409D01*
X14432516Y7258409D01*
X14439444Y7257665D01*
X14492127Y7252000D01*
X16187872Y7252001D01*
X16247483Y7258409D01*
X16382331Y7308704D01*
X16497546Y7394954D01*
X16583796Y7510169D01*
X16634091Y7645017D01*
X16640500Y7704627D01*
X16640499Y9400372D01*
X16634091Y9459983D01*
X16607908Y9530182D01*
X16583797Y9594829D01*
X16583793Y9594836D01*
X16497547Y9710045D01*
X16497544Y9710048D01*
X16382335Y9796294D01*
X16382328Y9796298D01*
X16247479Y9846593D01*
X16241959Y9847897D01*
X16181244Y9882471D01*
X16148859Y9944382D01*
X16155086Y10013973D01*
X16184984Y10055879D01*
X16183774Y10057089D01*
X16256627Y10129942D01*
X16331966Y10205281D01*
X16331968Y10205285D01*
X16331971Y10205287D01*
X16392383Y10288439D01*
X16452287Y10370890D01*
X16545220Y10553281D01*
X16608477Y10747966D01*
X16640500Y10950148D01*
X16640500Y11154852D01*
X16621674Y11273715D01*
X16608477Y11357035D01*
X16557963Y11512500D01*
X16545220Y11551719D01*
X16545218Y11551722D01*
X16545218Y11551724D01*
X16511503Y11617893D01*
X16452287Y11734110D01*
X16444556Y11744751D01*
X16331971Y11899714D01*
X16187213Y12044472D01*
X16021613Y12164785D01*
X16021612Y12164786D01*
X16021610Y12164787D01*
X15964653Y12193809D01*
X15839223Y12257719D01*
X15644534Y12320978D01*
X15469995Y12348622D01*
X15442352Y12353000D01*
X15237648Y12353000D01*
X15213329Y12349149D01*
X15035465Y12320978D01*
X14840776Y12257719D01*
X14658386Y12164785D01*
X14492786Y12044472D01*
X14492782Y12044468D01*
X14427681Y11979366D01*
X14366358Y11945881D01*
X14296666Y11950865D01*
X14252319Y11979366D01*
X14187213Y12044472D01*
X14021613Y12164785D01*
X14021612Y12164786D01*
X14021610Y12164787D01*
X13964653Y12193809D01*
X13839223Y12257719D01*
X13644534Y12320978D01*
X13469995Y12348622D01*
X13442352Y12353000D01*
X13237648Y12353000D01*
X13213329Y12349149D01*
X13035465Y12320978D01*
X12840776Y12257719D01*
X12658386Y12164785D01*
X12492786Y12044472D01*
X12348028Y11899714D01*
X12227715Y11734114D01*
X12134781Y11551724D01*
X12071522Y11357035D01*
X12039500Y11154852D01*
X-2000Y11154852D01*
X-2000Y15942902D01*
X7980000Y15942902D01*
X7980000Y15662099D01*
X8011437Y15383088D01*
X8011439Y15383076D01*
X8073921Y15109322D01*
X8073922Y15109320D01*
X8166662Y14844283D01*
X8288492Y14591300D01*
X8437884Y14353544D01*
X8544187Y14220243D01*
X9507912Y15183968D01*
X9602829Y15053325D01*
X9730825Y14925329D01*
X9861466Y14830414D01*
X8897741Y13866690D01*
X8897741Y13866689D01*
X9031043Y13760385D01*
X9268799Y13610993D01*
X9521782Y13489163D01*
X9786819Y13396423D01*
X9786821Y13396422D01*
X10060575Y13333940D01*
X10060587Y13333938D01*
X10339598Y13302501D01*
X10339600Y13302500D01*
X10620400Y13302500D01*
X10620401Y13302501D01*
X10899412Y13333938D01*
X10899424Y13333940D01*
X11173178Y13396422D01*
X11173180Y13396423D01*
X11438217Y13489163D01*
X11691200Y13610993D01*
X11928956Y13760384D01*
X12062257Y13866690D01*
X11098533Y14830414D01*
X11229175Y14925329D01*
X11357171Y15053325D01*
X11452086Y15183967D01*
X12415810Y14220243D01*
X12522116Y14353544D01*
X12671507Y14591300D01*
X12793337Y14844283D01*
X12886077Y15109320D01*
X12886078Y15109322D01*
X12948560Y15383076D01*
X12948562Y15383088D01*
X12979999Y15662099D01*
X12980000Y15662101D01*
X12980000Y15942900D01*
X12979999Y15942902D01*
X12948562Y16221913D01*
X12948560Y16221925D01*
X12909721Y16392092D01*
X12909721Y16392093D01*
X12905278Y16411557D01*
X17106999Y16411557D01*
X17106999Y16253443D01*
X17107000Y16253440D01*
X17107000Y14258443D01*
X17116974Y14221222D01*
X17147923Y14105717D01*
X17147926Y14105710D01*
X17226975Y13968791D01*
X17226979Y13968786D01*
X17226980Y13968784D01*
X17338784Y13856980D01*
X17338786Y13856979D01*
X17338790Y13856976D01*
X17469415Y13781561D01*
X17475716Y13777923D01*
X17628443Y13737000D01*
X17786557Y13737000D01*
X20937403Y13737000D01*
X21004442Y13717315D01*
X21025084Y13700681D01*
X22465681Y12260084D01*
X22499166Y12198761D01*
X22502000Y12172403D01*
X22502000Y8027573D01*
X22482315Y7960534D01*
X22465681Y7939892D01*
X22364200Y7838412D01*
X22364197Y7838408D01*
X22260181Y7682738D01*
X22260176Y7682729D01*
X22188527Y7509752D01*
X22188525Y7509744D01*
X22152000Y7326121D01*
X22152000Y7138880D01*
X22188525Y6955257D01*
X22188527Y6955249D01*
X22260176Y6782272D01*
X22260181Y6782263D01*
X22364197Y6626593D01*
X22364200Y6626589D01*
X22496588Y6494201D01*
X22496592Y6494198D01*
X22652262Y6390182D01*
X22652268Y6390179D01*
X22652269Y6390178D01*
X22825249Y6318527D01*
X23008879Y6282001D01*
X23008883Y6282000D01*
X23008884Y6282000D01*
X23196117Y6282000D01*
X23196118Y6282001D01*
X23379751Y6318527D01*
X23552731Y6390178D01*
X23708408Y6494198D01*
X23840802Y6626592D01*
X23944822Y6782269D01*
X24016473Y6955249D01*
X24053000Y7138884D01*
X24053000Y7326116D01*
X24016473Y7509751D01*
X23948649Y7673493D01*
X23944823Y7682729D01*
X23944818Y7682738D01*
X23840802Y7838408D01*
X23840799Y7838412D01*
X23739319Y7939892D01*
X23705834Y8001215D01*
X23703000Y8027573D01*
X23703000Y12551556D01*
X23702999Y12551564D01*
X23696002Y12577676D01*
X23694387Y12583704D01*
X23662077Y12704285D01*
X23615378Y12785169D01*
X23583020Y12841216D01*
X23471216Y12953020D01*
X23471215Y12953021D01*
X23466885Y12957351D01*
X23466874Y12957361D01*
X21725090Y14699145D01*
X21725088Y14699148D01*
X21606217Y14818019D01*
X21606216Y14818020D01*
X21519404Y14868140D01*
X21519404Y14868141D01*
X21519400Y14868142D01*
X21469285Y14897077D01*
X21316557Y14938001D01*
X21158443Y14938001D01*
X21150847Y14938001D01*
X21150831Y14938000D01*
X18432000Y14938000D01*
X18364961Y14957685D01*
X18319206Y15010489D01*
X18308000Y15062000D01*
X18308000Y15529999D01*
X21465204Y15529999D01*
X21465399Y15527514D01*
X21511218Y15369802D01*
X21594814Y15228448D01*
X21594821Y15228439D01*
X21710938Y15112322D01*
X21710947Y15112315D01*
X21852303Y15028718D01*
X21852306Y15028717D01*
X22010004Y14982901D01*
X22010010Y14982900D01*
X22046850Y14980001D01*
X22046866Y14980000D01*
X22375000Y14980000D01*
X22875000Y14980000D01*
X23203134Y14980000D01*
X23203149Y14980001D01*
X23239989Y14982900D01*
X23239995Y14982901D01*
X23397693Y15028717D01*
X23397696Y15028718D01*
X23539052Y15112315D01*
X23539061Y15112322D01*
X23655178Y15228439D01*
X23655185Y15228448D01*
X23738781Y15369802D01*
X23784600Y15527514D01*
X23784795Y15529999D01*
X23784795Y15530000D01*
X22875000Y15530000D01*
X22875000Y14980000D01*
X22375000Y14980000D01*
X22375000Y15530000D01*
X21465205Y15530000D01*
X21465204Y15529999D01*
X18308000Y15529999D01*
X18308000Y16003000D01*
X18310550Y16011686D01*
X18309262Y16020647D01*
X18320240Y16044688D01*
X18327685Y16070039D01*
X18334525Y16075967D01*
X18338287Y16084203D01*
X18360521Y16098493D01*
X18380489Y16115794D01*
X18391003Y16118082D01*
X18397065Y16121977D01*
X18432000Y16127000D01*
X18490831Y16127000D01*
X18490847Y16126999D01*
X18498443Y16126999D01*
X18656555Y16126999D01*
X18656557Y16126999D01*
X18656558Y16127000D01*
X18664613Y16128060D01*
X18664726Y16127199D01*
X18682215Y16129500D01*
X19316692Y16129500D01*
X19383731Y16109815D01*
X19404374Y16093180D01*
X19435629Y16061924D01*
X19435633Y16061921D01*
X19435635Y16061919D01*
X19577102Y15978256D01*
X19612575Y15967950D01*
X19734926Y15932403D01*
X19734929Y15932403D01*
X19734931Y15932402D01*
X19771806Y15929500D01*
X19771814Y15929500D01*
X20928186Y15929500D01*
X20928194Y15929500D01*
X20965069Y15932402D01*
X20965071Y15932403D01*
X20965073Y15932403D01*
X21006691Y15944495D01*
X21122898Y15978256D01*
X21264365Y16061919D01*
X21264370Y16061925D01*
X21270531Y16066702D01*
X21271839Y16065016D01*
X21323509Y16093239D01*
X21393201Y16088265D01*
X21440941Y16056248D01*
X21465204Y16030000D01*
X22375000Y16030000D01*
X22875000Y16030000D01*
X23784795Y16030000D01*
X23784795Y16030002D01*
X23784600Y16032487D01*
X23738781Y16190199D01*
X23655185Y16331553D01*
X23655178Y16331562D01*
X23539061Y16447679D01*
X23539052Y16447686D01*
X23397696Y16531283D01*
X23397693Y16531284D01*
X23239995Y16577100D01*
X23239989Y16577101D01*
X23203149Y16580000D01*
X22875000Y16580000D01*
X22875000Y16030000D01*
X22375000Y16030000D01*
X22375000Y16580000D01*
X22046850Y16580000D01*
X22010010Y16577101D01*
X22010004Y16577100D01*
X21852306Y16531284D01*
X21852303Y16531283D01*
X21704229Y16443712D01*
X21703211Y16445434D01*
X21647955Y16423743D01*
X21579438Y16437428D01*
X21529197Y16485983D01*
X21513000Y16547258D01*
X21513000Y16912105D01*
X21532685Y16979144D01*
X21585489Y17024899D01*
X21654647Y17034843D01*
X21702996Y17014329D01*
X21703920Y17015890D01*
X21719392Y17006740D01*
X21852102Y16928256D01*
X21893724Y16916164D01*
X22009926Y16882403D01*
X22009929Y16882403D01*
X22009931Y16882402D01*
X22046806Y16879500D01*
X22046814Y16879500D01*
X23203186Y16879500D01*
X23203194Y16879500D01*
X23240069Y16882402D01*
X23240071Y16882403D01*
X23240073Y16882403D01*
X23342306Y16912105D01*
X23397898Y16928256D01*
X23539365Y17011919D01*
X23655581Y17128135D01*
X23685098Y17178046D01*
X23736164Y17225728D01*
X23804905Y17238234D01*
X23854949Y17221658D01*
X23976105Y17150006D01*
X23986982Y17146846D01*
X24131502Y17104858D01*
X24131505Y17104858D01*
X24131507Y17104857D01*
X24167810Y17102000D01*
X24167818Y17102000D01*
X24637182Y17102000D01*
X24637190Y17102000D01*
X24673493Y17104857D01*
X24673495Y17104858D01*
X24673497Y17104858D01*
X24753629Y17128139D01*
X24828895Y17150006D01*
X24968187Y17232383D01*
X24968192Y17232389D01*
X24972824Y17235980D01*
X25037861Y17261514D01*
X25048824Y17262000D01*
X26228403Y17262000D01*
X26249648Y17255762D01*
X26271737Y17254182D01*
X26282520Y17246110D01*
X26295442Y17242315D01*
X26309941Y17225582D01*
X26327670Y17212310D01*
X26332377Y17199690D01*
X26341197Y17189511D01*
X26344348Y17167594D01*
X26352087Y17146846D01*
X26349224Y17133686D01*
X26351141Y17120353D01*
X26341941Y17100210D01*
X26337235Y17078573D01*
X26323966Y17060848D01*
X26322116Y17056797D01*
X26316084Y17050319D01*
X26282584Y17016819D01*
X26221261Y16983334D01*
X26194903Y16980500D01*
X25866508Y16980500D01*
X25826322Y16975675D01*
X25777242Y16969781D01*
X25635181Y16913759D01*
X25513508Y16821492D01*
X25421241Y16699819D01*
X25365219Y16557758D01*
X25360399Y16517617D01*
X25354500Y16468492D01*
X25354500Y15451508D01*
X25354808Y15448946D01*
X25365219Y15362243D01*
X25365220Y15362241D01*
X25421240Y15220184D01*
X25421241Y15220183D01*
X25424352Y15212294D01*
X25422054Y15211388D01*
X25434875Y15155753D01*
X25411265Y15089993D01*
X25410360Y15088768D01*
X25386649Y15057093D01*
X25386645Y15057087D01*
X25336403Y14922380D01*
X25336401Y14922373D01*
X25330000Y14862845D01*
X25330000Y13365000D01*
X27856000Y13365000D01*
X27923039Y13345315D01*
X27968794Y13292511D01*
X27980000Y13241000D01*
X27980000Y12989000D01*
X27960315Y12921961D01*
X27907511Y12876206D01*
X27856000Y12865000D01*
X25330000Y12865000D01*
X25330000Y11367156D01*
X25336401Y11307628D01*
X25336402Y11307624D01*
X25386649Y11172907D01*
X25410359Y11141235D01*
X25434777Y11075771D01*
X25422320Y11018508D01*
X25424352Y11017706D01*
X25421241Y11009818D01*
X25421240Y11009816D01*
X25405678Y10970353D01*
X25365219Y10867758D01*
X25362808Y10847678D01*
X25354500Y10778492D01*
X25354500Y9761508D01*
X25355395Y9754057D01*
X25365219Y9672243D01*
X25381098Y9631977D01*
X25410839Y9556558D01*
X25421241Y9530182D01*
X25513508Y9408509D01*
X25635181Y9316242D01*
X25635184Y9316240D01*
X25777241Y9260220D01*
X25866508Y9249500D01*
X26194903Y9249500D01*
X26261942Y9229815D01*
X26282584Y9213181D01*
X26766610Y8729155D01*
X26800095Y8667832D01*
X26798006Y8606880D01*
X26764834Y8492703D01*
X26762000Y8456689D01*
X26762000Y8058331D01*
X26762001Y8058309D01*
X26764835Y8022295D01*
X26809629Y7868112D01*
X26809632Y7868105D01*
X26843628Y7810619D01*
X26860809Y7742895D01*
X26843628Y7684381D01*
X26809632Y7626896D01*
X26809629Y7626889D01*
X26764835Y7472709D01*
X26764834Y7472703D01*
X26762000Y7436689D01*
X26762000Y7038331D01*
X26762001Y7038309D01*
X26764835Y7002295D01*
X26809629Y6848112D01*
X26809631Y6848107D01*
X26883914Y6722500D01*
X26891365Y6709902D01*
X26945682Y6655585D01*
X26979166Y6594264D01*
X26982000Y6567905D01*
X26982000Y5840927D01*
X26962315Y5773888D01*
X26909511Y5728133D01*
X26871255Y5717637D01*
X26815016Y5711591D01*
X26680171Y5661298D01*
X26680164Y5661294D01*
X26564955Y5575048D01*
X26564952Y5575045D01*
X26478706Y5459836D01*
X26478702Y5459829D01*
X26428408Y5324983D01*
X26422001Y5265384D01*
X26422001Y5265377D01*
X26422000Y5265365D01*
X26422000Y4169630D01*
X26422001Y4169624D01*
X26428408Y4110017D01*
X26478702Y3975172D01*
X26478704Y3975169D01*
X26503987Y3941395D01*
X26528405Y3875932D01*
X26513554Y3807659D01*
X26503988Y3792774D01*
X26479149Y3759594D01*
X26479145Y3759587D01*
X26428903Y3624880D01*
X26428901Y3624873D01*
X26422500Y3565345D01*
X26422500Y3267500D01*
X28872500Y3267500D01*
X28872500Y3565328D01*
X28872499Y3565345D01*
X28866098Y3624873D01*
X28866096Y3624880D01*
X28815854Y3759587D01*
X28815852Y3759590D01*
X28791012Y3792772D01*
X28766594Y3858236D01*
X28780098Y3923972D01*
X28784828Y3933134D01*
X28816296Y3975169D01*
X28841701Y4043285D01*
X28845111Y4049888D01*
X28864311Y4070001D01*
X28880980Y4092267D01*
X28888106Y4094926D01*
X28893358Y4100426D01*
X28920388Y4106966D01*
X28946444Y4116684D01*
X28955291Y4117000D01*
X31489709Y4117000D01*
X31556748Y4097315D01*
X31602503Y4044511D01*
X31605891Y4036333D01*
X31628702Y3975172D01*
X31628704Y3975169D01*
X31653987Y3941395D01*
X31678405Y3875932D01*
X31663554Y3807659D01*
X31653988Y3792774D01*
X31629149Y3759594D01*
X31629145Y3759587D01*
X31578903Y3624880D01*
X31578901Y3624873D01*
X31572500Y3565345D01*
X31572500Y3267500D01*
X34022500Y3267500D01*
X34022500Y3565328D01*
X34022499Y3565345D01*
X34016098Y3624873D01*
X34016096Y3624880D01*
X33965854Y3759587D01*
X33965852Y3759590D01*
X33941012Y3792772D01*
X33916594Y3858236D01*
X33931445Y3926510D01*
X33941005Y3941386D01*
X33966296Y3975169D01*
X34016591Y4110017D01*
X34023000Y4169627D01*
X34022999Y5265372D01*
X34016591Y5324983D01*
X34011853Y5337685D01*
X33966297Y5459829D01*
X33966293Y5459836D01*
X33880047Y5575045D01*
X33880044Y5575048D01*
X33764835Y5661294D01*
X33764828Y5661298D01*
X33629982Y5711592D01*
X33629983Y5711592D01*
X33570383Y5717999D01*
X33570381Y5718000D01*
X33570373Y5718000D01*
X33570364Y5718000D01*
X32024629Y5718000D01*
X32024623Y5717999D01*
X31965016Y5711592D01*
X31830171Y5661298D01*
X31830164Y5661294D01*
X31714955Y5575048D01*
X31714952Y5575045D01*
X31628706Y5459836D01*
X31628702Y5459829D01*
X31605891Y5398667D01*
X31564020Y5342733D01*
X31498556Y5318316D01*
X31489709Y5318000D01*
X28955291Y5318000D01*
X28888252Y5337685D01*
X28842497Y5390489D01*
X28839109Y5398667D01*
X28816297Y5459829D01*
X28816293Y5459836D01*
X28730047Y5575045D01*
X28730044Y5575048D01*
X28614835Y5661294D01*
X28614828Y5661298D01*
X28479982Y5711592D01*
X28479983Y5711592D01*
X28420383Y5717999D01*
X28420381Y5718000D01*
X28420373Y5718000D01*
X28420365Y5718000D01*
X28307000Y5718000D01*
X28239961Y5737685D01*
X28194206Y5790489D01*
X28183000Y5842000D01*
X28183000Y6222500D01*
X36402996Y6222500D01*
X36445468Y6076305D01*
X36527778Y5937126D01*
X36527785Y5937117D01*
X36642116Y5822786D01*
X36642125Y5822779D01*
X36781304Y5740469D01*
X36936589Y5695355D01*
X36957500Y5693711D01*
X37457500Y5693711D01*
X37478410Y5695355D01*
X37633695Y5740469D01*
X37772874Y5822779D01*
X37772883Y5822786D01*
X37887214Y5937117D01*
X37887221Y5937126D01*
X37969531Y6076305D01*
X38012004Y6222500D01*
X37457500Y6222500D01*
X37457500Y5693711D01*
X36957500Y5693711D01*
X36957500Y6222500D01*
X36402996Y6222500D01*
X28183000Y6222500D01*
X28183000Y6247500D01*
X39967996Y6247500D01*
X40010468Y6101305D01*
X40092778Y5962126D01*
X40092785Y5962117D01*
X40207116Y5847786D01*
X40207125Y5847779D01*
X40346304Y5765469D01*
X40501589Y5720355D01*
X40522500Y5718711D01*
X41022500Y5718711D01*
X41043410Y5720355D01*
X41198695Y5765469D01*
X41337874Y5847779D01*
X41337883Y5847786D01*
X41452214Y5962117D01*
X41452221Y5962126D01*
X41534531Y6101305D01*
X41577004Y6247500D01*
X41022500Y6247500D01*
X41022500Y5718711D01*
X40522500Y5718711D01*
X40522500Y6247500D01*
X39967996Y6247500D01*
X28183000Y6247500D01*
X28183000Y6567905D01*
X28202685Y6634944D01*
X28219314Y6655582D01*
X28273635Y6709902D01*
X28355369Y6848107D01*
X28400165Y7002296D01*
X28403000Y7038319D01*
X28402999Y7436680D01*
X28400165Y7472704D01*
X28355369Y7626893D01*
X28321369Y7684383D01*
X28319070Y7693446D01*
X28313247Y7700765D01*
X28310615Y7726768D01*
X28304188Y7752102D01*
X28306967Y7762821D01*
X28306213Y7770280D01*
X28314894Y7793385D01*
X28317569Y7803698D01*
X28319354Y7807211D01*
X28355369Y7868107D01*
X28362106Y7891299D01*
X28367394Y7901698D01*
X28383679Y7918972D01*
X28396457Y7938980D01*
X28407205Y7943927D01*
X28415323Y7952536D01*
X28438362Y7958263D01*
X28459929Y7968187D01*
X28477928Y7969500D01*
X32383331Y7969500D01*
X32383347Y7969499D01*
X32390943Y7969499D01*
X32549054Y7969499D01*
X32549057Y7969499D01*
X32701785Y8010423D01*
X32758244Y8043020D01*
X32838716Y8089480D01*
X32950520Y8201284D01*
X32950520Y8201286D01*
X32960724Y8211489D01*
X32960727Y8211494D01*
X34623917Y9874681D01*
X34685240Y9908166D01*
X34711598Y9911000D01*
X36454053Y9911000D01*
X36454057Y9911000D01*
X36455900Y9911494D01*
X36457515Y9911456D01*
X36462113Y9912061D01*
X36462207Y9911345D01*
X36525746Y9909837D01*
X36583612Y9870680D01*
X36611122Y9806454D01*
X36612000Y9791722D01*
X36612000Y8104167D01*
X36592315Y8037128D01*
X36575681Y8016486D01*
X36527387Y7968193D01*
X36527383Y7968187D01*
X36445005Y7828894D01*
X36445004Y7828891D01*
X36399857Y7673498D01*
X36399856Y7673492D01*
X36397000Y7637198D01*
X36397000Y7227803D01*
X36399856Y7191509D01*
X36399857Y7191503D01*
X36445004Y7036110D01*
X36445007Y7036103D01*
X36457410Y7015130D01*
X36474593Y6947406D01*
X36457412Y6888892D01*
X36445468Y6868696D01*
X36402996Y6722500D01*
X36709148Y6722500D01*
X36772266Y6705233D01*
X36781105Y6700006D01*
X36781108Y6700006D01*
X36781110Y6700004D01*
X36936502Y6654858D01*
X36936505Y6654858D01*
X36936507Y6654857D01*
X36972810Y6652000D01*
X36972818Y6652000D01*
X37442182Y6652000D01*
X37442190Y6652000D01*
X37478493Y6654857D01*
X37478495Y6654858D01*
X37478497Y6654858D01*
X37633889Y6700004D01*
X37633889Y6700005D01*
X37633895Y6700006D01*
X37642733Y6705233D01*
X37705852Y6722500D01*
X38012005Y6722500D01*
X38019100Y6731950D01*
X38019204Y6768275D01*
X38057146Y6826945D01*
X38120785Y6855788D01*
X38138081Y6857000D01*
X39834656Y6857000D01*
X39901695Y6837315D01*
X39947450Y6784511D01*
X39949165Y6772579D01*
X39967995Y6747500D01*
X40274148Y6747500D01*
X40337266Y6730233D01*
X40346105Y6725006D01*
X40346108Y6725006D01*
X40346110Y6725004D01*
X40501502Y6679858D01*
X40501505Y6679858D01*
X40501507Y6679857D01*
X40537810Y6677000D01*
X40537818Y6677000D01*
X41007182Y6677000D01*
X41007190Y6677000D01*
X41043493Y6679857D01*
X41043495Y6679858D01*
X41043497Y6679858D01*
X41198889Y6725004D01*
X41198889Y6725005D01*
X41198895Y6725006D01*
X41207733Y6730233D01*
X41223632Y6734583D01*
X41235917Y6742477D01*
X41270852Y6747500D01*
X41493764Y6747500D01*
X41560803Y6727815D01*
X41562619Y6726626D01*
X41572269Y6720178D01*
X41745249Y6648527D01*
X41855525Y6626592D01*
X41928879Y6612001D01*
X41928883Y6612000D01*
X41928884Y6612000D01*
X42116117Y6612000D01*
X42116118Y6612001D01*
X42299751Y6648527D01*
X42472731Y6720178D01*
X42628408Y6824198D01*
X42760802Y6956592D01*
X42864822Y7112269D01*
X42936473Y7285249D01*
X42973000Y7468884D01*
X42973000Y7656116D01*
X42936473Y7839751D01*
X42864822Y8012731D01*
X42864821Y8012732D01*
X42864818Y8012738D01*
X42760802Y8168408D01*
X42760799Y8168412D01*
X42628411Y8300800D01*
X42628407Y8300803D01*
X42472737Y8404819D01*
X42472728Y8404824D01*
X42299751Y8476473D01*
X42299743Y8476475D01*
X42116120Y8513000D01*
X42116116Y8513000D01*
X41928884Y8513000D01*
X41928879Y8513000D01*
X41745256Y8476475D01*
X41745248Y8476473D01*
X41584453Y8409869D01*
X41514983Y8402400D01*
X41452504Y8433675D01*
X41416852Y8493764D01*
X41413000Y8524430D01*
X41413000Y8882500D01*
X46203710Y8882500D01*
X46205354Y8861590D01*
X46250468Y8706305D01*
X46332778Y8567126D01*
X46332785Y8567117D01*
X46447116Y8452786D01*
X46447125Y8452779D01*
X46586304Y8370469D01*
X46732500Y8327996D01*
X46732500Y8882500D01*
X46203710Y8882500D01*
X41413000Y8882500D01*
X41413000Y9013452D01*
X41432685Y9080491D01*
X41485489Y9126246D01*
X41541588Y9135594D01*
X41541588Y9137000D01*
X41677322Y9137000D01*
X41721217Y9145732D01*
X41721217Y9145733D01*
X41721222Y9145733D01*
X41743610Y9160693D01*
X41810286Y9181570D01*
X41877667Y9163086D01*
X41881367Y9160708D01*
X41903775Y9145735D01*
X41903778Y9145733D01*
X41903782Y9145732D01*
X41947677Y9137000D01*
X41947680Y9137000D01*
X42077322Y9137000D01*
X42121217Y9145732D01*
X42121217Y9145733D01*
X42121222Y9145733D01*
X42143610Y9160693D01*
X42210286Y9181570D01*
X42277667Y9163086D01*
X42281367Y9160708D01*
X42303775Y9145735D01*
X42303778Y9145733D01*
X42303782Y9145732D01*
X42347677Y9137000D01*
X42347680Y9137000D01*
X42477322Y9137000D01*
X42521217Y9145732D01*
X42521217Y9145733D01*
X42521222Y9145733D01*
X42571004Y9178996D01*
X42604267Y9228778D01*
X42608389Y9249500D01*
X42613000Y9272678D01*
X42613000Y10077323D01*
X42604268Y10121218D01*
X42604267Y10121219D01*
X42604267Y10121222D01*
X42571004Y10171004D01*
X42571003Y10171005D01*
X42521224Y10204266D01*
X42521217Y10204269D01*
X42477322Y10213000D01*
X42477320Y10213000D01*
X42347680Y10213000D01*
X42347678Y10213000D01*
X42303782Y10204269D01*
X42303779Y10204268D01*
X42281389Y10189307D01*
X42214711Y10168431D01*
X42147331Y10186917D01*
X42143611Y10189307D01*
X42121223Y10204266D01*
X42121222Y10204267D01*
X42121221Y10204268D01*
X42121220Y10204268D01*
X42121217Y10204269D01*
X42077322Y10213000D01*
X42077320Y10213000D01*
X41947680Y10213000D01*
X41947678Y10213000D01*
X41903782Y10204269D01*
X41903779Y10204268D01*
X41881389Y10189307D01*
X41814711Y10168431D01*
X41747331Y10186917D01*
X41743611Y10189307D01*
X41721223Y10204266D01*
X41721222Y10204267D01*
X41721221Y10204268D01*
X41721220Y10204268D01*
X41721217Y10204269D01*
X41677322Y10213000D01*
X41677320Y10213000D01*
X41547680Y10213000D01*
X41541588Y10213000D01*
X41541588Y10214577D01*
X41480490Y10226174D01*
X41429788Y10274248D01*
X41413001Y10336549D01*
X41413001Y10446555D01*
X41413001Y10446557D01*
X41372077Y10599285D01*
X41293020Y10736216D01*
X40755521Y11273715D01*
X40755520Y11273716D01*
X40643716Y11385520D01*
X40552817Y11438000D01*
X40506785Y11464577D01*
X40354057Y11505501D01*
X40195943Y11505501D01*
X40188347Y11505501D01*
X40188331Y11505500D01*
X37944500Y11505500D01*
X37877461Y11525185D01*
X37831706Y11577989D01*
X37820500Y11629500D01*
X37820500Y13198459D01*
X37824725Y13230552D01*
X37825500Y13233443D01*
X37825500Y13391557D01*
X37784577Y13544285D01*
X37733946Y13631980D01*
X37705520Y13681216D01*
X37593716Y13793020D01*
X37506904Y13843140D01*
X37506904Y13843141D01*
X37506902Y13843141D01*
X37456785Y13872077D01*
X37456782Y13872078D01*
X37392230Y13889375D01*
X37304057Y13913000D01*
X37304056Y13913000D01*
X37036548Y13913000D01*
X37028787Y13915279D01*
X37020800Y13914004D01*
X36995746Y13924981D01*
X36969509Y13932685D01*
X36964213Y13938797D01*
X36956803Y13942043D01*
X36941660Y13964825D01*
X36923754Y13985489D01*
X36921610Y13994987D01*
X36918125Y14000231D01*
X36916232Y14018821D01*
X36912563Y14035084D01*
X36912413Y14044734D01*
X36913000Y14047680D01*
X36913000Y14177320D01*
X36910142Y14191684D01*
X36909969Y14202928D01*
X36916410Y14226192D01*
X36918561Y14250236D01*
X36926564Y14266837D01*
X36934577Y14280715D01*
X36975500Y14433442D01*
X36975500Y14591557D01*
X36951692Y14680410D01*
X36951692Y14744593D01*
X36975500Y14833443D01*
X36975500Y14991557D01*
X36951692Y15080409D01*
X36951692Y15144592D01*
X36975500Y15233443D01*
X36975500Y15412404D01*
X36995185Y15479443D01*
X37011815Y15500081D01*
X37487415Y15975682D01*
X37548738Y16009166D01*
X37552206Y16009869D01*
X37563552Y16012000D01*
X37677320Y16012000D01*
X37721222Y16020733D01*
X37764692Y16049779D01*
X37789610Y16054459D01*
X37800164Y16053401D01*
X37810286Y16056570D01*
X37834326Y16049976D01*
X37859131Y16047488D01*
X37867436Y16040893D01*
X37877667Y16038086D01*
X37881367Y16035708D01*
X37889906Y16030002D01*
X37903778Y16020733D01*
X37903782Y16020732D01*
X37947677Y16012000D01*
X37947680Y16012000D01*
X38077322Y16012000D01*
X38121217Y16020732D01*
X38121217Y16020733D01*
X38121222Y16020733D01*
X38143610Y16035693D01*
X38210286Y16056570D01*
X38277667Y16038086D01*
X38281367Y16035708D01*
X38289906Y16030002D01*
X38303778Y16020733D01*
X38303782Y16020732D01*
X38347677Y16012000D01*
X38347680Y16012000D01*
X38477322Y16012000D01*
X38521217Y16020732D01*
X38521217Y16020733D01*
X38521222Y16020733D01*
X38543610Y16035693D01*
X38610286Y16056570D01*
X38677667Y16038086D01*
X38681367Y16035708D01*
X38689906Y16030002D01*
X38703778Y16020733D01*
X38703782Y16020732D01*
X38747677Y16012000D01*
X38747680Y16012000D01*
X38877322Y16012000D01*
X38921217Y16020732D01*
X38921217Y16020733D01*
X38921222Y16020733D01*
X38943610Y16035693D01*
X39010286Y16056570D01*
X39077667Y16038086D01*
X39081367Y16035708D01*
X39089906Y16030002D01*
X39103778Y16020733D01*
X39103782Y16020732D01*
X39147677Y16012000D01*
X39147680Y16012000D01*
X39277322Y16012000D01*
X39321217Y16020732D01*
X39321217Y16020733D01*
X39321222Y16020733D01*
X39343610Y16035693D01*
X39410286Y16056570D01*
X39477667Y16038086D01*
X39481367Y16035708D01*
X39489906Y16030002D01*
X39503778Y16020733D01*
X39503782Y16020732D01*
X39547677Y16012000D01*
X39547680Y16012000D01*
X39677322Y16012000D01*
X39721217Y16020732D01*
X39721217Y16020733D01*
X39721222Y16020733D01*
X39743610Y16035693D01*
X39810286Y16056570D01*
X39877667Y16038086D01*
X39881367Y16035708D01*
X39889906Y16030002D01*
X39903778Y16020733D01*
X39903782Y16020732D01*
X39947677Y16012000D01*
X39947680Y16012000D01*
X40077321Y16012000D01*
X40096730Y16015861D01*
X40129328Y16012945D01*
X40162000Y16011243D01*
X40163940Y16009849D01*
X40166322Y16009635D01*
X40192169Y15989557D01*
X40218734Y15970461D01*
X40219984Y15967950D01*
X40221500Y15966772D01*
X40236245Y15939818D01*
X40238857Y15933208D01*
X40252923Y15880715D01*
X40269513Y15851981D01*
X40312618Y15777320D01*
X40331979Y15743786D01*
X40331981Y15743783D01*
X40450849Y15624915D01*
X40450855Y15624910D01*
X41531978Y14543787D01*
X41531980Y14543784D01*
X41580682Y14495082D01*
X41593272Y14472025D01*
X41614166Y14433761D01*
X41617000Y14407402D01*
X41617000Y13789170D01*
X41616999Y13789152D01*
X41616999Y13623446D01*
X41616998Y13623446D01*
X41657923Y13470715D01*
X41675335Y13440557D01*
X41675334Y13440557D01*
X41675335Y13440556D01*
X41736975Y13333791D01*
X41736981Y13333783D01*
X41855849Y13214915D01*
X41855855Y13214910D01*
X42122639Y12948126D01*
X42122649Y12948115D01*
X42126979Y12943785D01*
X42126980Y12943784D01*
X42238784Y12831980D01*
X42319864Y12785169D01*
X42375715Y12752923D01*
X42410920Y12743490D01*
X42420641Y12738982D01*
X42439176Y12722732D01*
X42460229Y12709899D01*
X42464988Y12700101D01*
X42473178Y12692921D01*
X42479985Y12669228D01*
X42490758Y12647052D01*
X42489464Y12636238D01*
X42492473Y12625768D01*
X42485389Y12602153D01*
X42482463Y12577676D01*
X42473343Y12561994D01*
X42472399Y12558844D01*
X42470632Y12557332D01*
X42467279Y12551564D01*
X42378580Y12434598D01*
X42323113Y12293944D01*
X42312500Y12205554D01*
X42312500Y12019447D01*
X42323113Y11931057D01*
X42378579Y11790405D01*
X42469935Y11669936D01*
X42590404Y11578580D01*
X42643948Y11557465D01*
X42699092Y11514559D01*
X42722285Y11448651D01*
X42720075Y11417919D01*
X42712000Y11377325D01*
X42712000Y11377320D01*
X42712000Y11247680D01*
X42712000Y11247678D01*
X42711999Y11247678D01*
X42720731Y11203783D01*
X42720732Y11203780D01*
X42720732Y11203779D01*
X42720733Y11203778D01*
X42735693Y11181389D01*
X42756569Y11114711D01*
X42738083Y11047331D01*
X42735699Y11043622D01*
X42732953Y11039511D01*
X42720732Y11021221D01*
X42720731Y11021218D01*
X42712000Y10977323D01*
X42712000Y10977320D01*
X42712000Y10847680D01*
X42712000Y10847678D01*
X42711999Y10847678D01*
X42720731Y10803783D01*
X42720732Y10803780D01*
X42720732Y10803779D01*
X42720733Y10803778D01*
X42735693Y10781389D01*
X42756569Y10714711D01*
X42738083Y10647331D01*
X42735699Y10643622D01*
X42728988Y10633578D01*
X42720732Y10621221D01*
X42720731Y10621218D01*
X42712000Y10577323D01*
X42712000Y10577320D01*
X42712000Y10447680D01*
X42712000Y10447678D01*
X42711999Y10447678D01*
X42720731Y10403783D01*
X42720734Y10403776D01*
X42742708Y10370890D01*
X42753996Y10353996D01*
X42803778Y10320733D01*
X42803781Y10320733D01*
X42803782Y10320732D01*
X42847677Y10312000D01*
X42847680Y10312000D01*
X43652322Y10312000D01*
X43696217Y10320732D01*
X43696217Y10320733D01*
X43696222Y10320733D01*
X43746004Y10353996D01*
X43779267Y10403778D01*
X43787635Y10445843D01*
X43788000Y10447678D01*
X43788000Y10577323D01*
X43779268Y10621218D01*
X43779267Y10621222D01*
X43764307Y10643611D01*
X43743430Y10710286D01*
X43761914Y10777667D01*
X43764307Y10781389D01*
X43779267Y10803778D01*
X43788000Y10847680D01*
X43788000Y10977320D01*
X43788000Y10977323D01*
X43779268Y11021218D01*
X43779267Y11021222D01*
X43770358Y11034555D01*
X43764307Y11043611D01*
X43743430Y11110286D01*
X43761914Y11177667D01*
X43764307Y11181389D01*
X43779267Y11203778D01*
X43788000Y11247680D01*
X43788000Y11377320D01*
X43779924Y11417919D01*
X43782844Y11450557D01*
X43784573Y11483273D01*
X43785941Y11485174D01*
X43786150Y11487508D01*
X43806255Y11513391D01*
X43825395Y11539976D01*
X43828110Y11541525D01*
X43829012Y11542686D01*
X43856052Y11557465D01*
X43882410Y11567859D01*
X43951997Y11574140D01*
X44013933Y11541802D01*
X44015580Y11540185D01*
X45054335Y10501430D01*
X45086429Y10445843D01*
X45126923Y10294715D01*
X45126926Y10294710D01*
X45205975Y10157791D01*
X45205979Y10157786D01*
X45205980Y10157784D01*
X45317784Y10045980D01*
X45317786Y10045979D01*
X45317790Y10045976D01*
X45373222Y10013973D01*
X45454716Y9966923D01*
X45607443Y9926000D01*
X45607445Y9926000D01*
X46261540Y9926000D01*
X46328579Y9906315D01*
X46374334Y9853511D01*
X46384278Y9784353D01*
X46355253Y9720797D01*
X46349221Y9714319D01*
X46332785Y9697884D01*
X46332778Y9697875D01*
X46250468Y9558696D01*
X46250466Y9558691D01*
X46205355Y9403419D01*
X46205354Y9403413D01*
X46203709Y9382501D01*
X46203710Y9382500D01*
X46858500Y9382500D01*
X46925539Y9362815D01*
X46971294Y9310011D01*
X46982500Y9258500D01*
X46982500Y9132500D01*
X47038000Y9132500D01*
X47105039Y9112815D01*
X47150794Y9060011D01*
X47162000Y9008500D01*
X47162000Y8897803D01*
X47164856Y8861509D01*
X47164857Y8861503D01*
X47210003Y8706111D01*
X47210005Y8706107D01*
X47210006Y8706105D01*
X47215232Y8697267D01*
X47232500Y8634148D01*
X47232500Y8327997D01*
X47378694Y8370468D01*
X47398884Y8382409D01*
X47466608Y8399594D01*
X47525129Y8382411D01*
X47546105Y8370006D01*
X47587087Y8358100D01*
X47701502Y8324858D01*
X47701505Y8324858D01*
X47701507Y8324857D01*
X47737810Y8322000D01*
X47737818Y8322000D01*
X48147182Y8322000D01*
X48147190Y8322000D01*
X48183493Y8324857D01*
X48183495Y8324858D01*
X48183497Y8324858D01*
X48224475Y8336764D01*
X48338895Y8370006D01*
X48478187Y8452383D01*
X48592617Y8566813D01*
X48674994Y8706105D01*
X48720143Y8861507D01*
X48723000Y8897810D01*
X48723000Y9012402D01*
X48742685Y9079441D01*
X48759322Y9100086D01*
X48768019Y9108783D01*
X48776711Y9123838D01*
X48847077Y9245716D01*
X48888001Y9398443D01*
X48888001Y9556558D01*
X48888001Y9564153D01*
X48888000Y9564171D01*
X48888000Y10210524D01*
X48907685Y10277563D01*
X48960489Y10323318D01*
X48987635Y10330764D01*
X48987432Y10331624D01*
X48994979Y10333408D01*
X48994981Y10333409D01*
X48994983Y10333409D01*
X49129831Y10383704D01*
X49245046Y10469954D01*
X49331296Y10585169D01*
X49381591Y10720017D01*
X49388000Y10779627D01*
X49387999Y12275372D01*
X49381591Y12334983D01*
X49372154Y12360284D01*
X49331297Y12469829D01*
X49331295Y12469832D01*
X49310796Y12497215D01*
X49268581Y12553607D01*
X49244164Y12619069D01*
X49259015Y12687342D01*
X49268582Y12702229D01*
X49330852Y12785411D01*
X49330854Y12785414D01*
X49381096Y12920121D01*
X49381098Y12920128D01*
X49387499Y12979656D01*
X49387500Y12979673D01*
X49387500Y13477500D01*
X48411500Y13477500D01*
X48344461Y13497185D01*
X48298706Y13549989D01*
X48287500Y13601500D01*
X48287500Y13853500D01*
X48307185Y13920539D01*
X48359989Y13966294D01*
X48411500Y13977500D01*
X49387500Y13977500D01*
X49387500Y14475328D01*
X49387499Y14475345D01*
X49381098Y14534873D01*
X49381096Y14534880D01*
X49330854Y14669587D01*
X49330850Y14669594D01*
X49244690Y14784688D01*
X49244687Y14784691D01*
X49129593Y14870851D01*
X49129586Y14870855D01*
X48994879Y14921097D01*
X48994872Y14921099D01*
X48935344Y14927500D01*
X48531762Y14927500D01*
X48464723Y14947185D01*
X48418968Y14999989D01*
X48409024Y15069147D01*
X48438049Y15132703D01*
X48461973Y15152668D01*
X48461715Y15153001D01*
X48467883Y15157786D01*
X48582214Y15272117D01*
X48582221Y15272126D01*
X48664531Y15411305D01*
X48664533Y15411310D01*
X48709644Y15566582D01*
X48709645Y15566588D01*
X48711290Y15587500D01*
X48056500Y15587500D01*
X47989461Y15607185D01*
X47943706Y15659989D01*
X47932500Y15711500D01*
X47932500Y15837500D01*
X47877000Y15837500D01*
X47809961Y15857185D01*
X47764206Y15909989D01*
X47753000Y15961500D01*
X47753000Y16072183D01*
X47752999Y16072198D01*
X47752702Y16075967D01*
X47750143Y16108493D01*
X47747357Y16118082D01*
X47704995Y16263892D01*
X47704992Y16263900D01*
X47699766Y16272737D01*
X47682500Y16335855D01*
X47682500Y16642006D01*
X48182500Y16642006D01*
X48182500Y16087500D01*
X48711290Y16087500D01*
X48709645Y16108411D01*
X48664531Y16263696D01*
X48582221Y16402875D01*
X48582214Y16402884D01*
X48467883Y16517215D01*
X48467874Y16517222D01*
X48328693Y16599533D01*
X48328690Y16599535D01*
X48182501Y16642007D01*
X48182500Y16642006D01*
X47682500Y16642006D01*
X47682498Y16642007D01*
X47536309Y16599535D01*
X47536306Y16599533D01*
X47516108Y16587588D01*
X47448384Y16570408D01*
X47389870Y16587590D01*
X47368897Y16599993D01*
X47368890Y16599996D01*
X47213497Y16645143D01*
X47213491Y16645144D01*
X47177197Y16648000D01*
X47177190Y16648000D01*
X46767810Y16648000D01*
X46767802Y16648000D01*
X46731508Y16645144D01*
X46731502Y16645143D01*
X46601677Y16607424D01*
X46567082Y16602500D01*
X46210852Y16602500D01*
X46147733Y16619768D01*
X46138895Y16624994D01*
X46138893Y16624995D01*
X46138889Y16624997D01*
X45983497Y16670143D01*
X45983491Y16670144D01*
X45947197Y16673000D01*
X45947190Y16673000D01*
X45477810Y16673000D01*
X45477802Y16673000D01*
X45441508Y16670144D01*
X45441502Y16670143D01*
X45286109Y16624996D01*
X45286108Y16624996D01*
X45286105Y16624994D01*
X45205122Y16577101D01*
X45203505Y16576145D01*
X45135781Y16558964D01*
X45105790Y16563802D01*
X44963497Y16605143D01*
X44963491Y16605144D01*
X44927197Y16608000D01*
X44927190Y16608000D01*
X44816500Y16608000D01*
X44807814Y16610551D01*
X44798853Y16609262D01*
X44774812Y16620241D01*
X44749461Y16627685D01*
X44743533Y16634526D01*
X44735297Y16638287D01*
X44721007Y16660522D01*
X44703706Y16680489D01*
X44701418Y16691004D01*
X44697523Y16697065D01*
X44692500Y16732000D01*
X44692500Y16913500D01*
X44712185Y16980539D01*
X44737309Y17002310D01*
X44801181Y17066181D01*
X44862504Y17099666D01*
X44888862Y17102500D01*
X46517004Y17102500D01*
X46474531Y17248696D01*
X46392221Y17387875D01*
X46392214Y17387884D01*
X46277883Y17502215D01*
X46277874Y17502222D01*
X46138696Y17584531D01*
X45991383Y17627329D01*
X45932498Y17664936D01*
X45903291Y17728408D01*
X45913037Y17797595D01*
X45938294Y17834085D01*
X46010802Y17906592D01*
X46114822Y18062269D01*
X46186473Y18235249D01*
X46223000Y18418884D01*
X46223000Y18606116D01*
X46186473Y18789751D01*
X46121338Y18947001D01*
X46114823Y18962729D01*
X46114818Y18962738D01*
X46010802Y19118408D01*
X46010799Y19118412D01*
X45878411Y19250800D01*
X45878407Y19250803D01*
X45722737Y19354819D01*
X45722728Y19354824D01*
X45549751Y19426473D01*
X45549743Y19426475D01*
X45366120Y19463000D01*
X45366116Y19463000D01*
X45178884Y19463000D01*
X45178879Y19463000D01*
X44995256Y19426475D01*
X44995248Y19426473D01*
X44822271Y19354824D01*
X44822262Y19354819D01*
X44666592Y19250803D01*
X44666588Y19250800D01*
X44539608Y19123819D01*
X44512680Y19109116D01*
X44486862Y19092523D01*
X44480661Y19091632D01*
X44478285Y19090334D01*
X44451927Y19087500D01*
X44270852Y19087500D01*
X44207733Y19104768D01*
X44198895Y19109994D01*
X44198893Y19109995D01*
X44198889Y19109997D01*
X44043497Y19155143D01*
X44043491Y19155144D01*
X44007197Y19158000D01*
X44007190Y19158000D01*
X43537810Y19158000D01*
X43537802Y19158000D01*
X43501508Y19155144D01*
X43501502Y19155143D01*
X43346110Y19109997D01*
X43346105Y19109994D01*
X43337266Y19104768D01*
X43274148Y19087500D01*
X42967996Y19087500D01*
X42997311Y18986594D01*
X42997111Y18916725D01*
X42959168Y18858055D01*
X42895530Y18829212D01*
X42878234Y18828000D01*
X41905344Y18828000D01*
X41838305Y18847685D01*
X41792550Y18900489D01*
X41790834Y18912422D01*
X41772005Y18937500D01*
X41465852Y18937500D01*
X41402733Y18954768D01*
X41393895Y18959994D01*
X41393893Y18959995D01*
X41393889Y18959997D01*
X41238497Y19005143D01*
X41238491Y19005144D01*
X41202197Y19008000D01*
X41202190Y19008000D01*
X41091500Y19008000D01*
X41024461Y19027685D01*
X40978706Y19080489D01*
X40967500Y19132000D01*
X40967500Y19187500D01*
X40908098Y19187500D01*
X40878657Y19196145D01*
X40848671Y19202668D01*
X40843655Y19206423D01*
X40841059Y19207185D01*
X40820417Y19223819D01*
X40753819Y19290417D01*
X40720334Y19351740D01*
X40717500Y19378098D01*
X40717500Y19437500D01*
X41217500Y19437500D01*
X41772004Y19437500D01*
X41745712Y19528001D01*
X41729531Y19583696D01*
X41727281Y19587500D01*
X42967996Y19587500D01*
X43522500Y19587500D01*
X44022500Y19587500D01*
X44577004Y19587500D01*
X44534531Y19733696D01*
X44452221Y19872875D01*
X44452214Y19872884D01*
X44337883Y19987215D01*
X44337874Y19987222D01*
X44198695Y20069532D01*
X44198690Y20069534D01*
X44043418Y20114645D01*
X44043412Y20114646D01*
X44022500Y20116291D01*
X44022500Y19587500D01*
X43522500Y19587500D01*
X43522500Y20116290D01*
X43522499Y20116291D01*
X43501587Y20114646D01*
X43501581Y20114645D01*
X43346309Y20069534D01*
X43346304Y20069532D01*
X43207125Y19987222D01*
X43207116Y19987215D01*
X43092785Y19872884D01*
X43092778Y19872875D01*
X43010468Y19733696D01*
X42967996Y19587500D01*
X41727281Y19587500D01*
X41647221Y19722875D01*
X41647214Y19722884D01*
X41532883Y19837215D01*
X41532874Y19837222D01*
X41393695Y19919532D01*
X41393690Y19919534D01*
X41238418Y19964645D01*
X41238412Y19964646D01*
X41217500Y19966291D01*
X41217500Y19437500D01*
X40717500Y19437500D01*
X40717500Y19966290D01*
X40717499Y19966291D01*
X40696587Y19964646D01*
X40696581Y19964645D01*
X40541309Y19919534D01*
X40541304Y19919532D01*
X40402127Y19837223D01*
X40402116Y19837215D01*
X40392247Y19827345D01*
X40330923Y19793862D01*
X40261232Y19798849D01*
X40234985Y19812394D01*
X40225224Y19819012D01*
X40191216Y19853020D01*
X40086260Y19913616D01*
X40082389Y19915851D01*
X40082386Y19915853D01*
X40054285Y19932077D01*
X39901557Y19973001D01*
X39743443Y19973001D01*
X39735847Y19973001D01*
X39735831Y19973000D01*
X38475344Y19973000D01*
X38408305Y19992685D01*
X38362550Y20045489D01*
X38360834Y20057422D01*
X38342005Y20082500D01*
X38035852Y20082500D01*
X37972733Y20099768D01*
X37963895Y20104994D01*
X37963893Y20104995D01*
X37963889Y20104997D01*
X37808497Y20150143D01*
X37808491Y20150144D01*
X37772197Y20153000D01*
X37772190Y20153000D01*
X37593000Y20153000D01*
X37525961Y20172685D01*
X37480206Y20225489D01*
X37469000Y20277000D01*
X37469000Y20582500D01*
X37787500Y20582500D01*
X38342004Y20582500D01*
X38299531Y20728696D01*
X38217221Y20867875D01*
X38217214Y20867884D01*
X38102883Y20982215D01*
X38102874Y20982222D01*
X37963695Y21064532D01*
X37963690Y21064534D01*
X37808418Y21109645D01*
X37808412Y21109646D01*
X37787500Y21111291D01*
X37787500Y20582500D01*
X37469000Y20582500D01*
X37469000Y20804990D01*
X37469001Y20805003D01*
X37469001Y20973105D01*
X37469001Y20973107D01*
X37428077Y21125834D01*
X37423928Y21133021D01*
X37349024Y21262760D01*
X37349018Y21262768D01*
X37239897Y21371889D01*
X37112010Y21499775D01*
X37112009Y21499777D01*
X36982767Y21629019D01*
X36982766Y21629020D01*
X36895954Y21679140D01*
X36895954Y21679141D01*
X36895950Y21679142D01*
X36845835Y21708077D01*
X36693107Y21749001D01*
X36534993Y21749001D01*
X36527397Y21749001D01*
X36527381Y21749000D01*
X34930482Y21749000D01*
X34772368Y21749000D01*
X34619640Y21708077D01*
X34619639Y21708077D01*
X34619637Y21708076D01*
X34619634Y21708075D01*
X34569521Y21679141D01*
X34569520Y21679140D01*
X34526114Y21654080D01*
X34482710Y21629021D01*
X34482707Y21629019D01*
X34370905Y21517217D01*
X34370905Y21517216D01*
X34370903Y21517214D01*
X34273223Y21419534D01*
X34254078Y21400389D01*
X34192755Y21366905D01*
X34123063Y21371889D01*
X34103276Y21381339D01*
X34038695Y21419532D01*
X34038690Y21419534D01*
X33883418Y21464645D01*
X33883412Y21464646D01*
X33862500Y21466291D01*
X33862500Y21060173D01*
X33842815Y20993134D01*
X33838280Y20986552D01*
X33832760Y20979072D01*
X33794480Y20940791D01*
X33761857Y20884285D01*
X33758381Y20878266D01*
X33758379Y20878262D01*
X33721850Y20814992D01*
X33715423Y20803860D01*
X33708870Y20779405D01*
X33672505Y20719746D01*
X33618523Y20693524D01*
X33612500Y20687500D01*
X33612500Y20632000D01*
X33592815Y20564961D01*
X33540011Y20519206D01*
X33488500Y20508000D01*
X33377802Y20508000D01*
X33341508Y20505144D01*
X33341502Y20505143D01*
X33186110Y20459997D01*
X33186105Y20459994D01*
X33177266Y20454768D01*
X33114148Y20437500D01*
X32794936Y20437500D01*
X32768640Y20417875D01*
X32698942Y20412992D01*
X32637796Y20446439D01*
X32146735Y20937500D01*
X32807996Y20937500D01*
X33362500Y20937500D01*
X33362500Y21466290D01*
X33362499Y21466291D01*
X33341587Y21464646D01*
X33341581Y21464645D01*
X33186309Y21419534D01*
X33186304Y21419532D01*
X33047125Y21337222D01*
X33047116Y21337215D01*
X32932785Y21222884D01*
X32932778Y21222875D01*
X32850468Y21083696D01*
X32807996Y20937500D01*
X32146735Y20937500D01*
X32070090Y21014145D01*
X32070088Y21014148D01*
X31951217Y21133019D01*
X31951216Y21133020D01*
X31864404Y21183140D01*
X31864404Y21183141D01*
X31864400Y21183142D01*
X31814285Y21212077D01*
X31661557Y21253001D01*
X31503443Y21253001D01*
X31495847Y21253001D01*
X31495831Y21253000D01*
X30484170Y21253000D01*
X30484154Y21253001D01*
X30476558Y21253001D01*
X30318443Y21253001D01*
X30242079Y21232539D01*
X30165714Y21212077D01*
X30165713Y21212076D01*
X30122477Y21187113D01*
X30060477Y21170500D01*
X28405943Y21170500D01*
X28253216Y21129577D01*
X28253209Y21129574D01*
X28116290Y21050525D01*
X28116282Y21050519D01*
X28004481Y20938718D01*
X28004475Y20938710D01*
X27925426Y20801791D01*
X27925423Y20801784D01*
X27884500Y20649057D01*
X27884500Y19680489D01*
X27864815Y19613450D01*
X27857500Y19604729D01*
X27857500Y19013097D01*
X27848855Y18983657D01*
X27842332Y18953670D01*
X27838577Y18948655D01*
X27837815Y18946058D01*
X27821181Y18925416D01*
X27754584Y18858819D01*
X27693261Y18825334D01*
X27666903Y18822500D01*
X27607500Y18822500D01*
X27607500Y18767000D01*
X27587815Y18699961D01*
X27535011Y18654206D01*
X27483500Y18643000D01*
X27372802Y18643000D01*
X27336508Y18640144D01*
X27336502Y18640143D01*
X27181110Y18594997D01*
X27181105Y18594994D01*
X27172266Y18589768D01*
X27109148Y18572500D01*
X26802995Y18572500D01*
X26788537Y18553245D01*
X26788533Y18551726D01*
X26750591Y18493056D01*
X26686953Y18464212D01*
X26669656Y18463000D01*
X25334534Y18463000D01*
X25267495Y18482685D01*
X25221740Y18535489D01*
X25215091Y18581730D01*
X25207004Y18592500D01*
X24900852Y18592500D01*
X24837733Y18609768D01*
X24828895Y18614994D01*
X24828893Y18614995D01*
X24828889Y18614997D01*
X24673497Y18660143D01*
X24673491Y18660144D01*
X24637197Y18663000D01*
X24637190Y18663000D01*
X24167810Y18663000D01*
X24167802Y18663000D01*
X24131508Y18660144D01*
X24131502Y18660143D01*
X23976110Y18614997D01*
X23976105Y18614994D01*
X23967266Y18609768D01*
X23904148Y18592500D01*
X23597996Y18592500D01*
X23591180Y18583424D01*
X23593204Y18569353D01*
X23589369Y18560957D01*
X23589343Y18551725D01*
X23575085Y18529680D01*
X23564179Y18505797D01*
X23556412Y18500806D01*
X23551400Y18493055D01*
X23527487Y18482218D01*
X23505401Y18468023D01*
X23491881Y18466080D01*
X23487762Y18464212D01*
X23470466Y18463000D01*
X23307962Y18463000D01*
X23273367Y18467924D01*
X23255933Y18472989D01*
X23240070Y18477598D01*
X23240067Y18477599D01*
X23203201Y18480500D01*
X23203194Y18480500D01*
X22046806Y18480500D01*
X22046798Y18480500D01*
X22009932Y18477599D01*
X22009926Y18477598D01*
X21852106Y18431746D01*
X21852103Y18431745D01*
X21710637Y18348083D01*
X21710629Y18348077D01*
X21594423Y18231871D01*
X21594417Y18231863D01*
X21510755Y18090397D01*
X21510754Y18090394D01*
X21464902Y17932574D01*
X21464901Y17932568D01*
X21462000Y17895702D01*
X21462000Y17497896D01*
X21442315Y17430857D01*
X21389511Y17385102D01*
X21320353Y17375158D01*
X21272002Y17395670D01*
X21271080Y17394110D01*
X21137176Y17473300D01*
X21122898Y17481744D01*
X21122897Y17481745D01*
X21122896Y17481745D01*
X21122893Y17481746D01*
X20965073Y17527598D01*
X20965067Y17527599D01*
X20928201Y17530500D01*
X20928194Y17530500D01*
X19771806Y17530500D01*
X19771798Y17530500D01*
X19734932Y17527599D01*
X19734926Y17527598D01*
X19577106Y17481746D01*
X19577103Y17481745D01*
X19435637Y17398083D01*
X19435629Y17398077D01*
X19404374Y17366820D01*
X19343052Y17333334D01*
X19316692Y17330500D01*
X18659062Y17330500D01*
X18659058Y17330501D01*
X18500943Y17330501D01*
X18492405Y17328214D01*
X18476905Y17328011D01*
X18476413Y17328149D01*
X18475285Y17328000D01*
X18023439Y17328000D01*
X17991644Y17319481D01*
X17991645Y17319480D01*
X17870714Y17287077D01*
X17870709Y17287074D01*
X17733790Y17208025D01*
X17733782Y17208019D01*
X17226981Y16701218D01*
X17226975Y16701210D01*
X17182974Y16624996D01*
X17182974Y16624995D01*
X17147923Y16564286D01*
X17147923Y16564285D01*
X17106999Y16411557D01*
X12905278Y16411557D01*
X12886079Y16495675D01*
X12886077Y16495681D01*
X12793337Y16760718D01*
X12671507Y17013701D01*
X12522115Y17251457D01*
X12415810Y17384759D01*
X11452086Y16421035D01*
X11357171Y16551675D01*
X11229175Y16679671D01*
X11098533Y16774588D01*
X12062257Y17738313D01*
X11928956Y17844616D01*
X11691200Y17994008D01*
X11438217Y18115838D01*
X11173180Y18208578D01*
X11173178Y18208579D01*
X10899424Y18271061D01*
X10899412Y18271063D01*
X10620401Y18302500D01*
X10339598Y18302500D01*
X10060587Y18271063D01*
X10060575Y18271061D01*
X9786821Y18208579D01*
X9786819Y18208578D01*
X9521782Y18115838D01*
X9268799Y17994008D01*
X9031043Y17844616D01*
X8897741Y17738313D01*
X9861466Y16774588D01*
X9730825Y16679671D01*
X9602829Y16551675D01*
X9507912Y16421034D01*
X8544187Y17384759D01*
X8437884Y17251457D01*
X8288492Y17013701D01*
X8166662Y16760718D01*
X8073922Y16495681D01*
X8073921Y16495679D01*
X8011439Y16221925D01*
X8011437Y16221913D01*
X7980000Y15942902D01*
X-2000Y15942902D01*
X-2000Y19072500D01*
X26802996Y19072500D01*
X27357500Y19072500D01*
X27357500Y19601290D01*
X27357499Y19601291D01*
X27336587Y19599646D01*
X27336581Y19599645D01*
X27181309Y19554534D01*
X27181304Y19554532D01*
X27042125Y19472222D01*
X27042116Y19472215D01*
X26927785Y19357884D01*
X26927778Y19357875D01*
X26845468Y19218696D01*
X26802996Y19072500D01*
X-2000Y19072500D01*
X-2000Y19092500D01*
X23597996Y19092500D01*
X24152500Y19092500D01*
X24652500Y19092500D01*
X25207004Y19092500D01*
X25164531Y19238696D01*
X25082221Y19377875D01*
X25082214Y19377884D01*
X24967883Y19492215D01*
X24967874Y19492222D01*
X24828695Y19574532D01*
X24828690Y19574534D01*
X24673418Y19619645D01*
X24673412Y19619646D01*
X24652500Y19621291D01*
X24652500Y19092500D01*
X24152500Y19092500D01*
X24152500Y19621290D01*
X24152499Y19621291D01*
X24131587Y19619646D01*
X24131581Y19619645D01*
X23976309Y19574534D01*
X23976304Y19574532D01*
X23837125Y19492222D01*
X23837116Y19492215D01*
X23722785Y19377884D01*
X23722778Y19377875D01*
X23640468Y19238696D01*
X23597996Y19092500D01*
X-2000Y19092500D01*
X-2000Y22543000D01*
X17685Y22610039D01*
X70489Y22655794D01*
X122000Y22667000D01*
X50898000Y22667000D01*
X50965039Y22647315D01*
G37*
%TD.AperFunction*%
%TD*%
M02*
